<svg id="Layer_1" data-name="Layer 1" xmlns="http://www.w3.org/2000/svg" viewBox="0 0 1737.34 226.77"><defs><style>.cls-1{fill:#fff;}</style></defs><path class="cls-1" d="M317.94,213.89l-6.14,1h-.45c-.46.11-.91.11-1.37.23l-1.59.22c-80.48,13.19-148.57,14.9-208,5.35-16-2.62-39.55-7.05-59.67-15.69C16.94,194.79,3.41,180.92.57,163.76c-7.16-41.95,55-75.59,75.48-86.62C130.38,47.7,197.34,26.56,280.66,12.46S434.23-3.79,495.15,6.1h0C534.94,12.57,588.59,25.42,595,63s-40,67.41-75.48,86.62c-53,28.65-117.76,49.45-198.13,63.54l-1.59.23c-.45.12-.91.12-1.36.23C318.17,213.89,318.05,213.89,317.94,213.89ZM311,211.61h.22l6.26-1.13h.11c.45-.12.91-.12,1.36-.23l1.6-.23c79.91-14,144.36-34.67,197.1-63.2C598.14,103.28,593,73.5,591.43,63.73c-6.59-39.56-74.56-50.59-96.84-54.11h0C434-.16,364.21,1.89,281.23,16S131.75,51.11,77.64,80.32c-80.48,43.54-75.36,73.32-73.77,83.1,6.7,39.55,74.68,50.47,97,54.1,59.11,9.55,126.86,7.85,207-5.34l1.6-.23c.45-.11.91-.11,1.36-.22Z"/><path class="cls-1" d="M312,197.86c-1.59.23-3.3.57-5.11.79-3.42.57-7.28,1.14-11.49,1.82l-.45.12c-1.82.22-3.75.57-5.8.79-1.82.23-3.75.57-5.79.8H283c-3.06.45-6.36.79-9.66,1.25h-.45l-4.21.45c-1.14.12-2.39.23-3.52.46H265c-25.8,2.84-50.36,4.55-72.86,4.89-40.92.56-73.78-3.19-97.42-11.14C72.07,190.47,57.63,178.88,52,163.64a44.38,44.38,0,0,1-2.16-8.07c-2-11.93.91-23.75,8.75-35,10.92-15.68,31.6-30.69,61.5-44.44,28-13,63.43-24.67,105.26-34.9,26.48-6.48,47.74-10.34,58.09-12s32.05-5.11,58.88-7.84c29.55-3,72.75-5.69,111.05-1.93,32.85,3.18,57.41,10.57,72.87,22.05,10.8,8.07,17.39,18.07,19.32,30a44,44,0,0,1,.57,8.64h0c-.46,16.25-10.12,31.82-28.65,46.26C497.77,141.71,468,156.14,429,169.1c-21.6,7.16-45.36,13.64-70.71,19.44a21.73,21.73,0,0,1-2.61.57L346.93,191c-2.28.45-4.44.91-6.6,1.36l-2.16.46c-1.25.22-2.38.45-3.63.68s-2.62.57-4,.8l-2.16.45c-4.21.8-8.07,1.48-11.48,2.16C315.33,197.29,313.62,197.63,312,197.86Zm-39.33,2.27h.57c3.18-.34,6.36-.79,9.43-1.25H283c1.94-.23,3.87-.57,5.8-.79s4-.57,5.8-.8l.45-.11c4.21-.69,8-1.25,11.37-1.71,3.64-.57,6.48-1,10.12-1.7,3.41-.57,7.27-1.37,11.48-2.16l2.16-.46c1.25-.23,2.61-.45,3.86-.79l3.53-.69,2.16-.45c2.16-.45,4.32-.91,6.59-1.36l8.75-1.94c.91-.22,1.71-.34,2.62-.57C383,179.67,406.6,173.08,428.09,166c38.65-12.84,68.09-27.05,87.41-42.17C533.23,110,542.44,95.33,542.9,80.1h0a38.06,38.06,0,0,0-.57-8c-1.82-11-8-20.35-18.08-27.85-15-11-38.87-18.3-71.15-21.37-38.08-3.64-81.05-1-110.38,1.93-26.82,2.62-48.31,6-58.65,7.73s-31.6,5.68-57.86,12.05c-41,10-77.3,21.94-104.69,34.67C92.19,92.83,72,107.38,61.39,122.61c-7.28,10.46-10,21.48-8.19,32.51a41,41,0,0,0,2,7.5c5.34,14.32,19,25.24,40.69,32.51,23.3,7.84,55.7,11.48,96.28,10.91,22.51-.34,46.95-1.93,72.64-4.88h.22a34.27,34.27,0,0,0,3.53-.46l4.09-.57Z"/><path class="cls-1" d="M179.14,164.55l-.34-.11h-.32l.32,3.18c1-.11,1.93-.11,3-.22a64.83,64.83,0,0,1,8-.13A90.35,90.35,0,0,1,179.14,164.55ZM210.69,173l.6,0Zm5.6-3h0l.38-.08Zm1.26-.19h-.1V170l.23,0M545.39,71.69c-1.93-11.94-8.52-21.94-19.32-30-15.46-11.48-40-18.87-72.87-22.06-38.3-3.75-81.5-1-111,1.94-26.83,2.72-48.43,6-58.88,7.84S251.67,35,225.18,41.45c-41.83,10.23-77.3,21.94-105.26,34.9C90,90.1,69.34,105.1,58.42,120.79c-7.84,11.25-10.79,23.08-8.75,35a42.66,42.66,0,0,0,1.48,6.09c.22.68.44,1.33.68,2,.16.42.32.83.49,1.24,6,14.62,20.24,25.79,42.25,33.2,23.65,8,56.5,11.71,97.42,11.14h.68l.45-.56c5.9-6.24,12.25-12.7,18.6-18.2.13-.12.26-.22.39-.33l3.52-3.07H211c-.26,0-.53,0-.79,0-30.35.29-54.81-2.42-72.71-8.25l-.16,0,.21-.08c15.71-6.32,28.72-9.82,40.71-11.17l.07,0c8.77,2.74,19.55,4.49,32.09,5.22h0a159.41,159.41,0,0,1-22-2.72c-1.31-.27-2.6-.56-3.86-.85L183,169c-1.51-.41-3-.83-4.38-1.27l-.34-.08-.11,0q-3.23-1-6.12-2.27c-11.69,1.94-24.58,5.87-39.8,12.28l-3.71,1.59-.24.1h0l4,1.48c17.84,6.71,43,10.12,74.57,10-5.35,4.78-10.46,10.12-15.35,15.23-40.24.57-72.3-3.18-95.48-10.91-20.93-7-34.36-17.4-40.08-31-.22-.5-.43-1-.62-1.54s-.41-1.11-.59-1.68a41.26,41.26,0,0,1-1.45-5.82c-1.82-11,.9-22.05,8.18-32.51C72,107.38,92.18,92.83,121.51,79.3c27.4-12.73,63.66-24.67,104.69-34.67,26.26-6.36,47.52-10.34,57.86-12.05s31.83-5.11,58.66-7.73c29.32-3,72.29-5.57,110.37-1.93,32.28,3.07,56.15,10.34,71.16,21.37,10.12,7.5,16.25,16.82,18.07,27.85a37.4,37.4,0,0,1,.57,8c-.45,15.23-9.66,29.89-27.39,43.76-19.21,15-48.43,29.21-86.73,41.94-6.37-3.29-13.19-6.7-20-9.66,29.67-10.45,52.29-21.82,67.29-33.87l3.3-2.73-.68,0-3.64-.2c-21.14-1.36-36.94-.22-49.56,3.41l-.34.12-.34.22a142.22,142.22,0,0,1-28.42,15l-1.59.57c-3.07,1.25-6.37,2.5-9.66,3.63l-2.05.69.06-.37c.13-.79.25-1.59.34-2.38a90.56,90.56,0,0,0,.74-13.74c0-.72,0-1.45-.09-2.18s-.08-1.46-.14-2.2-.13-1.48-.19-2.23-.16-1.49-.27-2.23c-.13-1-.28-2-.45-3s-.41-2-.6-3c-.09-.5-.2-1-.31-1.48a82.25,82.25,0,0,0-8.41-22.17,80.81,80.81,0,0,0-4.29-6.9c-.47-.68-.95-1.37-1.45-2s-.84-1.15-1.28-1.71-.94-1.2-1.42-1.79a84.61,84.61,0,0,0-18.62-16.88,81.2,81.2,0,0,0-17.73-9,84.68,84.68,0,0,0-40.58-4.21,38.24,38.24,0,0,0-4,.63l-.35,0a84.86,84.86,0,0,0-36.94,17.39,77.57,77.57,0,0,0-13.2,13.46l-.33.41a85.9,85.9,0,0,0-7,10.62c-.41.74-.8,1.49-1.18,2.24-.32.59-.61,1.19-.9,1.81s-.5,1-.72,1.54a81.76,81.76,0,0,0-3,7.62l0,0c-.24.7-.47,1.4-.7,2.1s-.42,1.39-.62,2.1c-.15.53-.31,1.08-.45,1.62,0,.11,0,.21-.07.31a4.26,4.26,0,0,0-.15.54c-.13.47-.24,1-.35,1.45a.55.55,0,0,0,0,.17l0,.15c-.1.39-.17.76-.25,1.15s-.15.69-.22,1c-.15.73-.28,1.47-.41,2.21-.28,1.65-.52,3.29-.72,4.94-.06.56-.12,1.13-.17,1.7-.06.75-.12,1.5-.17,2.26a85.57,85.57,0,0,0,0,10.13c.07,1.35.17,2.71.32,4.07,0,.29,0,.59.09.88.13,1,.27,1.87.41,2.77,0,.19,0,.38.09.56a.41.41,0,0,0,0,.11c0,.15.05.3.07.45a.31.31,0,0,0,0,.11c0,.19.06.37.08.55.06.4.13.78.2,1.18a85.55,85.55,0,0,0,3,11.55A81,81,0,0,0,227.16,170h.07c.44.79.91,1.57,1.38,2.37l.5.81h1c-.47,0-.92,0-1.38,0h-.18l-4.1.19h.19c1,0,1.91,0,2.84-.06.38,0,.75,0,1.13,0h.06l1.43,0,3-.12,0,0-1.57-2.47c-.17-.27-.34-.54-.5-.83a77.12,77.12,0,0,1-7.23-15.65,78.77,78.77,0,0,1-3.07-12.28c-.22-1.47-.45-2.84-.57-4.32-.09-.79-.17-1.59-.23-2.38a77.5,77.5,0,0,1,.92-20.69A79.93,79.93,0,0,1,236.21,79.3c1.1-1.4,2.25-2.77,3.43-4.1a79.46,79.46,0,0,1,9.52-9.2,81.59,81.59,0,0,1,35.47-16.59l.33-.06,1.72-.29,2-.34a80.88,80.88,0,0,1,39,4.1,79.11,79.11,0,0,1,16.94,8.52,80.26,80.26,0,0,1,34,49.33c.22,1.37.56,2.73.79,4.21a79.78,79.78,0,0,1,1.14,11.37A83.13,83.13,0,0,1,379,144c0,.25-.09.49-.14.74l-.56,2.95,2.84-.91,1.17-.4c1.27-.43,2.49-.87,3.71-1.3,3.41-1.14,6.6-2.39,9.78-3.64l1.59-.57a149.72,149.72,0,0,0,28.87-15.23c11.37-3.18,25.69-4.32,43.88-3.52l-.13.1c-15.24,11.44-37.7,22.21-66.71,32.06l-4.43,1.48.05,0,4.27,1.69.36.14A240,240,0,0,1,427.74,169l.68.34h.46c39-13,68.77-27.4,88.44-42.74,18.52-14.44,28.19-30,28.64-46.27A44,44,0,0,0,545.39,71.69ZM217.55,169.81h-.1V170l.23,0m-1,0-.4.07h0Zm-.15,3.38h.18l1.95.06,1.53,0c-1.33,0-2.66-.08-3.9-.14-.34,0-.67,0-1,0h-.37a.52.52,0,0,0-.17,0m-36.28-8.76.32,3.18c1-.11,1.93-.11,3-.22a64.83,64.83,0,0,1,8-.13,90.35,90.35,0,0,1-10.63-2.72l-.34-.11Zm.66.11-.34-.11h-.32l.32,3.18c1-.11,1.93-.11,3-.22a64.83,64.83,0,0,1,8-.13A90.35,90.35,0,0,1,179.14,164.55ZM216.29,170h0l.38-.08Zm1.26-.19h-.1V170l.23,0m-.13-.16h-.1V170l.23,0m-1.39,0h0l.38-.08Zm-37.15-5.45-.34-.11h-.32l.32,3.18c1-.11,1.93-.11,3-.22a64.83,64.83,0,0,1,8-.13A90.35,90.35,0,0,1,179.14,164.55Z"/><path class="cls-1" d="M179.14,164.55l-.34-.11h-.32l.32,3.18c1-.11,1.93-.11,3-.22a64.83,64.83,0,0,1,8-.13A90.35,90.35,0,0,1,179.14,164.55ZM210.69,173l.6,0Zm5.6-3h0l.38-.08Zm1.26-.19h-.1V170l.23,0M545.39,71.69c-1.93-11.94-8.52-21.94-19.32-30-15.46-11.48-40-18.87-72.87-22.06-38.3-3.75-81.5-1-111,1.94-26.83,2.72-48.43,6-58.88,7.84S251.67,35,225.18,41.45c-41.83,10.23-77.3,21.94-105.26,34.9C90,90.1,69.34,105.1,58.42,120.79c-7.84,11.25-10.79,23.08-8.75,35a42.66,42.66,0,0,0,1.48,6.09c.22.68.44,1.33.68,2,.16.42.32.83.49,1.24,6,14.62,20.24,25.79,42.25,33.2,23.65,8,56.5,11.71,97.42,11.14h.68l.45-.56c5.9-6.24,12.25-12.7,18.6-18.2.13-.12.26-.22.39-.33l3.52-3.07H211c-.26,0-.53,0-.79,0-30.35.29-54.81-2.42-72.71-8.25l-.16,0,.21-.08c15.71-6.32,28.72-9.82,40.71-11.17l.07,0c8.77,2.74,19.55,4.49,32.09,5.22h0a159.41,159.41,0,0,1-22-2.72c-1.31-.27-2.6-.56-3.86-.85L183,169c-1.51-.41-3-.83-4.38-1.27l-.34-.08-.11,0q-3.23-1-6.12-2.27c-11.69,1.94-24.58,5.87-39.8,12.28l-3.71,1.59-.24.1h0l4,1.48c17.84,6.71,43,10.12,74.57,10-5.35,4.78-10.46,10.12-15.35,15.23-40.24.57-72.3-3.18-95.48-10.91-20.93-7-34.36-17.4-40.08-31-.22-.5-.43-1-.62-1.54s-.41-1.11-.59-1.68a41.26,41.26,0,0,1-1.45-5.82c-1.82-11,.9-22.05,8.18-32.51C72,107.38,92.18,92.83,121.51,79.3c27.4-12.73,63.66-24.67,104.69-34.67,26.26-6.36,47.52-10.34,57.86-12.05s31.83-5.11,58.66-7.73c29.32-3,72.29-5.57,110.37-1.93,32.28,3.07,56.15,10.34,71.16,21.37,10.12,7.5,16.25,16.82,18.07,27.85a37.4,37.4,0,0,1,.57,8c-.45,15.23-9.66,29.89-27.39,43.76-19.21,15-48.43,29.21-86.73,41.94-6.37-3.29-13.19-6.7-20-9.66,29.67-10.45,52.29-21.82,67.29-33.87l3.3-2.73-.68,0-3.64-.2c-21.14-1.36-36.94-.22-49.56,3.41l-.34.12-.34.22a142.22,142.22,0,0,1-28.42,15l-1.59.57c-3.07,1.25-6.37,2.5-9.66,3.63l-2.05.69.06-.37c.13-.79.25-1.59.34-2.38a90.56,90.56,0,0,0,.74-13.74c0-.72,0-1.45-.09-2.18s-.08-1.46-.14-2.2-.13-1.48-.19-2.23-.16-1.49-.27-2.23c-.13-1-.28-2-.45-3s-.41-2-.6-3c-.09-.5-.2-1-.31-1.48a82.25,82.25,0,0,0-8.41-22.17,80.81,80.81,0,0,0-4.29-6.9c-.47-.68-.95-1.37-1.45-2s-.84-1.15-1.28-1.71-.94-1.2-1.42-1.79a84.61,84.61,0,0,0-18.62-16.88,81.2,81.2,0,0,0-17.73-9,84.68,84.68,0,0,0-40.58-4.21,38.24,38.24,0,0,0-4,.63l-.35,0a84.86,84.86,0,0,0-36.94,17.39,77.57,77.57,0,0,0-13.2,13.46l-.33.41a85.9,85.9,0,0,0-7,10.62c-.41.74-.8,1.49-1.18,2.24-.32.59-.61,1.19-.9,1.81s-.5,1-.72,1.54a81.76,81.76,0,0,0-3,7.62l0,0c-.24.7-.47,1.4-.7,2.1s-.42,1.39-.62,2.1c-.15.53-.31,1.08-.45,1.62,0,.11,0,.21-.07.31a4.26,4.26,0,0,0-.15.54c-.13.47-.24,1-.35,1.45a.55.55,0,0,0,0,.17l0,.15c-.1.39-.17.76-.25,1.15s-.15.69-.22,1c-.15.73-.28,1.47-.41,2.21-.28,1.65-.52,3.29-.72,4.94-.06.56-.12,1.13-.17,1.7-.06.75-.12,1.5-.17,2.26a85.57,85.57,0,0,0,0,10.13c.07,1.35.17,2.71.32,4.07,0,.29,0,.59.09.88.13,1,.27,1.87.41,2.77,0,.19,0,.38.09.56a.41.41,0,0,0,0,.11c0,.15.05.3.07.45a.31.31,0,0,0,0,.11c0,.19.06.37.08.55.06.4.13.78.2,1.18a85.55,85.55,0,0,0,3,11.55A81,81,0,0,0,227.16,170h.07c.44.79.91,1.57,1.38,2.37l.5.81h1c-.47,0-.92,0-1.38,0h-.18l-4.1.19h.19c1,0,1.91,0,2.84-.06.38,0,.75,0,1.13,0h.06l1.43,0,3-.12,0,0-1.57-2.47c-.17-.27-.34-.54-.5-.83a77.12,77.12,0,0,1-7.23-15.65,78.77,78.77,0,0,1-3.07-12.28c-.22-1.47-.45-2.84-.57-4.32-.09-.79-.17-1.59-.23-2.38a77.5,77.5,0,0,1,.92-20.69A79.93,79.93,0,0,1,236.21,79.3c1.1-1.4,2.25-2.77,3.43-4.1a79.46,79.46,0,0,1,9.52-9.2,81.59,81.59,0,0,1,35.47-16.59l.33-.06,1.72-.29,2-.34a80.88,80.88,0,0,1,39,4.1,79.11,79.11,0,0,1,16.94,8.52,80.26,80.26,0,0,1,34,49.33c.22,1.37.56,2.73.79,4.21a79.78,79.78,0,0,1,1.14,11.37A83.13,83.13,0,0,1,379,144c0,.25-.09.49-.14.74l-.56,2.95,2.84-.91,1.17-.4c1.27-.43,2.49-.87,3.71-1.3,3.41-1.14,6.6-2.39,9.78-3.64l1.59-.57a149.72,149.72,0,0,0,28.87-15.23c11.37-3.18,25.69-4.32,43.88-3.52l-.13.1c-15.24,11.44-37.7,22.21-66.71,32.06l-4.43,1.48.05,0,4.27,1.69.36.14A240,240,0,0,1,427.74,169l.68.34h.46c39-13,68.77-27.4,88.44-42.74,18.52-14.44,28.19-30,28.64-46.27A44,44,0,0,0,545.39,71.69ZM217.55,169.81h-.1V170l.23,0m-1,0-.4.07h0Zm-.15,3.38h.18l1.95.06,1.53,0c-1.33,0-2.66-.08-3.9-.14-.34,0-.67,0-1,0h-.37a.52.52,0,0,0-.17,0m-36.28-8.76.32,3.18c1-.11,1.93-.11,3-.22a64.83,64.83,0,0,1,8-.13,90.35,90.35,0,0,1-10.63-2.72l-.34-.11Zm.66.11-.34-.11h-.32l.32,3.18c1-.11,1.93-.11,3-.22a64.83,64.83,0,0,1,8-.13A90.35,90.35,0,0,1,179.14,164.55ZM216.29,170h0l.38-.08Zm0,0h0l.38-.08Zm-37.15-5.45-.34-.11h-.32l.32,3.18c1-.11,1.93-.11,3-.22a64.83,64.83,0,0,1,8-.13A90.35,90.35,0,0,1,179.14,164.55Z"/><path class="cls-1" d="M216.56,169.69l-.59.09h-.12c-2.09-.06-4.15-.16-6.15-.28q-3.82-.23-7.4-.6-6-.59-11.22-1.57h0a94.61,94.61,0,0,1-12.12-3l-.35-.12h-.34q-3.27.36-6.66,1c-11.5,2-24.12,5.83-39,12-15.4-5.82-25.1-14.29-28.87-25.13-.21-.59-.4-1.19-.57-1.81s-.28-1.06-.39-1.58c-.15-.7-.27-1.4-.41-2.06-1.59-9.32.91-18.52,7.39-27.28l.45-.57C119,107.15,134.92,96,157.66,85.67a357.21,357.21,0,0,1,37.72-14.39c14-4.57,29.4-8.86,45.71-12.78C248.35,56.77,255,55.24,261,54c.29-.07.59-.12.89-.18a80.71,80.71,0,0,0-14.78,9.66A77.74,77.74,0,0,0,233.8,77.11l-.21.26q-1.64,2.11-3.1,4.33a82.44,82.44,0,0,0-9.72,19.61l0,0c-.24.7-.47,1.4-.7,2.1s-.42,1.39-.62,2.1c-.09.31-.17.62-.25.94s-.13.46-.2.68,0,.21-.07.31a4.26,4.26,0,0,0-.15.54c-.13.47-.24,1-.35,1.45a.55.55,0,0,0,0,.17l0,.15c-.1.39-.17.76-.25,1.15s-.15.69-.22,1c0,.12-.06.23-.08.36-.13.58-.23,1.15-.33,1.73-.3,1.68-.53,3.37-.72,5.06-.06.56-.12,1.13-.17,1.7-.06.75-.12,1.5-.17,2.26a85.57,85.57,0,0,0,0,10.13c.08,1.35.18,2.7.33,4.05,0,.27,0,.53.08.79.13,1,.28,1.93.42,2.86a2.84,2.84,0,0,0,.06.31c.06.47.13.92.2,1.38.16,1,.34,2,.56,3,0,.1,0,.19.05.3.13.55.25,1.11.38,1.65.51,2.18,1.08,4.22,1.69,6.18.16.53.33,1,.5,1.58l.66,1.87c.23.63.46,1.25.71,1.88.49,1.24,1,2.48,1.54,3.7.24.53.47,1,.72,1.56s.49,1,.75,1.52c.68,1.4,1.42,2.78,2.2,4.12h0c.44.79.91,1.57,1.38,2.37l.5.81h1c-.47,0-.92,0-1.38,0h-.18l-4.1.19h.19c1,0,1.91,0,2.84-.06l1.12,0h.07l1.43,0h.23l2.95-.12,0,0-1.46-2.47c-.17-.27-.34-.54-.51-.83A77.62,77.62,0,0,1,224,154.21,78.77,78.77,0,0,1,221,141.93c-.22-1.47-.45-2.84-.56-4.32-.11-.86-.2-1.72-.27-2.59a78.06,78.06,0,0,1,1-20.48A79.93,79.93,0,0,1,236.55,79.3c.85-1.08,1.72-2.14,2.62-3.18A80.16,80.16,0,0,1,285,49.41v-.06l-.55-3.18v-.06c-1.63.28-3.61.64-5.92,1.06-8.76,1.61-22.11,4.25-38,8-33.31,8-61.5,17.17-84,27.4-22.85,10.46-39.21,21.71-48.42,33.64l-.46.57c-7.38,9.78-10.23,20-8.41,30.47.12.7.26,1.37.42,2s.32,1.28.49,1.93c.14.48.29,1,.44,1.44,3.69,11.27,13,20.13,27.66,26.41a1.92,1.92,0,0,0,.25.12c1.19.51,2.43,1,3.71,1.48l.68.22.57-.22c1.36-.57,2.7-1.13,4-1.66l.22-.08c15.62-6.28,28.55-9.84,40.61-11.2l.16,0c1.44.45,2.94.87,4.49,1.27-1.51-.41-3-.83-4.38-1.27l-.34-.08-.11,0q-3.23-1-6.12-2.27c2.2-.37,4.35-.68,6.46-.91h0l.32,3.18c1-.11,1.93-.11,3-.22a64.83,64.83,0,0,1,8-.13,136.22,136.22,0,0,0,14.11,2c2,.19,4,.34,6.11.47s4.1.21,6.21.28h.11l.38-.08.43-.06.33-.05V170l.23,0v0h1.25c1.85,0,3.69.1,5.45.1h2.85a.67.67,0,0,1-.07-.11h-3c-1.74,0-3.56-.08-5.4-.1H218l-.33-.07-.13,0-.1,0m-.73,3.54h.05l1.9.07,1.53,0c-1.33,0-2.66-.08-3.9-.14-.34,0-.67,0-1,0H215m1.54-3.53.23.08m10.37.24h-3c-1.74,0-3.56-.08-5.4-.1H218l-.33-.07-.13,0-.1,0V170l.23,0v0h1.25c1.85,0,3.69.1,5.45.1h2.85A.67.67,0,0,1,227.16,170Z"/><path class="cls-1" d="M378.53,147.84l.57-3a83.63,83.63,0,0,0,1.7-18.53A77.11,77.11,0,0,0,379.66,115c-.22-1.48-.56-2.84-.79-4.2a80.24,80.24,0,0,0-34-49.34,78.88,78.88,0,0,0-16.94-8.52,80.84,80.84,0,0,0-39-4.09l-.57-3.3c7.73-1.25,23.87-3.75,44.33-5.68,23.07-2.28,56.95-4.32,87.41-1.6h.23c25.46,2.28,44.79,7.62,57.63,15.92h0l.57.34c10.12,6.71,16.14,15.23,17.85,25.58a33.37,33.37,0,0,1,.45,4.54c.45,13.07-6.59,25.81-21,37.63l-.57.45h-.68c-20.23-1.25-36-.23-48.31,3.3a150.32,150.32,0,0,1-28.87,15.23l-1.59.57c-3.19,1.25-6.37,2.5-9.78,3.64-1.59.56-3.18,1.13-4.89,1.7ZM312,45.31A86.39,86.39,0,0,1,329,49.52a81.2,81.2,0,0,1,17.73,9,84.62,84.62,0,0,1,27.05,29.33A81.76,81.76,0,0,1,382.17,110c.34,1.48.56,3,.9,4.43a83.17,83.17,0,0,1,1.14,11.83,88.78,88.78,0,0,1-1.14,16.48l2.05-.68c3.3-1.14,6.59-2.39,9.66-3.64l1.59-.57a142.47,142.47,0,0,0,28.42-15l.34-.23.34-.12c12.51-3.63,28.08-4.66,48.88-3.41,13.19-11,19.67-22.62,19.21-34.44a27.44,27.44,0,0,0-.45-4.2c-1.59-9.21-6.94-16.94-15.92-23.08l-.45-.34c-12.28-8.07-31.26-13.3-56.38-15.69h-.23c-30.23-2.72-64-.68-87.07,1.6C325.33,43.72,318.28,44.52,312,45.31Z"/><path class="cls-1" d="M217.68,169.9V170l.33-.07Zm9.48.11h-3c-1.74,0-3.56-.08-5.4-.1l.17.11c1.85,0,3.69.1,5.45.1h2.85A.67.67,0,0,1,227.16,170Zm-10.37-.24-.73.12H216c-2.09-.07-4.12-.16-6.11-.29-2.29-.12-4.5-.29-6.66-.51a129.1,129.1,0,0,1-12.95-1.82h0a92,92,0,0,1-11.29-2.84l-.35-.11-.1,0-.24-.08c-11.85-3.94-19.9-9.94-23.95-17.9-.38-.75-.74-1.53-1.05-2.33-.16-.4-.32-.81-.47-1.23a27,27,0,0,1-1.13-4.34c-1-5.46.8-11,5.35-16.71a63.42,63.42,0,0,1,13.58-12.17A160.4,160.4,0,0,1,192,97.26a331.7,331.7,0,0,1,38.25-15.47l.25-.09h0q-2.1,3.12-3.9,6.41c-.41.74-.8,1.49-1.18,2.24-.32.59-.61,1.19-.9,1.81s-.5,1-.72,1.54a81.76,81.76,0,0,0-3,7.62l0,0c-.24.7-.47,1.4-.7,2.1s-.42,1.39-.62,2.1c-.15.53-.31,1.08-.45,1.62,0,.11,0,.21-.07.31a4.26,4.26,0,0,0-.15.54c-.13.47-.24,1-.35,1.45a.55.55,0,0,0,0,.17l0,.15c-.1.39-.17.76-.25,1.15s-.21.93-.3,1.4-.23,1.15-.33,1.73c-.3,1.68-.53,3.37-.72,5.06-.06.56-.12,1.13-.17,1.7-.06.75-.12,1.5-.17,2.26a85.57,85.57,0,0,0,0,10.13c.08,1.35.18,2.7.33,4.05,0,.27,0,.53.08.79.13,1,.28,1.93.42,2.86a2.84,2.84,0,0,0,.06.31c.06.47.13.92.2,1.38.16,1,.34,2,.56,3,0,.1,0,.19.05.3.13.55.25,1.11.38,1.65.51,2.18,1.08,4.22,1.69,6.18.16.53.33,1,.5,1.58l.66,1.87c.23.63.46,1.25.71,1.88.49,1.24,1,2.48,1.54,3.7.24.53.47,1,.72,1.56s.49,1,.75,1.52c.68,1.4,1.42,2.78,2.2,4.12h0c.44.79.91,1.57,1.38,2.37l.5.81h1c-.47,0-.92,0-1.38,0h-.18l-4.1.19h.19c1,0,1.91,0,2.84-.06l1.12,0h.07l1.43,0h.23l2.95-.12,0,0-1.34-2.35c-.21-.32-.4-.64-.58-1a77.47,77.47,0,0,1-7.15-15.53,76.47,76.47,0,0,1-3.07-12.27c-.23-1.48-.46-2.84-.57-4.32a78.64,78.64,0,0,1,.68-23.08,79.93,79.93,0,0,1,15.46-35.24l2.51-3.29.79-1-.32.1-4.91,1.6-.81.27-.12,0c-.09,0-.19,0-.28.09q-12,4-22.54,8.13-11,4.33-20.24,8.86c-17.28,8.3-29.56,16.83-36.26,25.35-5.12,6.48-7.17,13.07-6,19.44a33.85,33.85,0,0,0,1,3.76,26.16,26.16,0,0,0,.87,2.49c.14.34.28.68.43,1,3.58,8.1,10.56,14.43,20.87,18.92l.16.07h0l.26.11c2.2-.37,4.35-.68,6.46-.91h0l.32,3.18c1-.11,1.93-.11,3-.22a64.83,64.83,0,0,1,8-.13,136.22,136.22,0,0,0,14.11,2c2,.19,4,.34,6.11.47s4.1.21,6.21.28h.11l.38-.08.43-.06.33-.05m9.78.3a.67.67,0,0,1-.07-.11h-3c-1.74,0-3.56-.08-5.4-.1l.17.11c1.85,0,3.69.1,5.45.1Zm-9.55-.15.33-.07h-.33Zm-1,3.35h.05l1.9.07,1.53,0c-1.33,0-2.66-.08-3.9-.14-.34,0-.67,0-1,0H215M227.16,170h-3c-1.74,0-3.56-.08-5.4-.1h-1.31V170l.23,0v0h1.25c1.85,0,3.69.1,5.45.1h2.85A.67.67,0,0,1,227.16,170Z"/><path class="cls-1" d="M378.53,147.84l.57-3a83.63,83.63,0,0,0,1.7-18.53A77.11,77.11,0,0,0,379.66,115c-.22-1.48-.56-2.84-.79-4.2a80.24,80.24,0,0,0-34-49.34l-4.55-3.07,5.46-.11a384.72,384.72,0,0,1,46.26,2c19.1,2.27,33.42,6.13,42.75,11.82,7.27,4.32,11.48,9.77,12.5,16.14h0a32.79,32.79,0,0,1,.34,6.59c-.57,11-7.62,21.37-20.92,30.81l-.34.22c-7.5,5.35-17.27,10.35-28.76,15.12l-1.59.57c-3.18,1.25-6.36,2.5-9.77,3.64-1.59.57-3.19,1.14-4.89,1.7ZM351,61.57a83.87,83.87,0,0,1,22.73,26.26A81.76,81.76,0,0,1,382.17,110c.34,1.48.56,3,.9,4.43a83.17,83.17,0,0,1,1.14,11.83,88.78,88.78,0,0,1-1.14,16.48l2.05-.68c3.3-1.14,6.59-2.39,9.66-3.64l1.59-.57a142.47,142.47,0,0,0,28.42-15l.34-.23c12.17-8.75,18.65-18.19,19.1-28a25.1,25.1,0,0,0-.34-5.8C443,83.51,439.34,79,433,75.09c-8.87-5.34-22.74-9.09-41.38-11.36A363.33,363.33,0,0,0,351,61.57Z"/><path class="cls-1" d="M227.16,170h-3c-1.74,0-3.56-.08-5.4-.1l.17.11c1.85,0,3.69.1,5.45.1h2.85A.67.67,0,0,1,227.16,170Zm6.07,3.15-1.34-2.35c-.21-.32-.4-.64-.58-1a77.47,77.47,0,0,1-7.15-15.53,76.47,76.47,0,0,1-3.07-12.27c-.23-1.48-.46-2.84-.57-4.32l-.34-2.73,0,0-.31.21-1.93,1.25-1.21.8s0,0,0,0l-.07,0a56.18,56.18,0,0,0-8.14,6.64c-4.23,4.23-6.29,8.46-6.16,12.49,0,.2,0,.39,0,.58a10.42,10.42,0,0,0,.46,2.84c.08.31.18.62.28.92v0a16.64,16.64,0,0,0,3.29,5.58,22.15,22.15,0,0,0,3.34,3.09.91.91,0,0,0,.16.11s.09.07.13.12q3,.18,6.21.28h.09l-.23-.11-.21-.11-.22-.11-.45-.34h-.12c-.34-.18-.67-.38-1-.58a20.29,20.29,0,0,1-6.16-5.31,12.08,12.08,0,0,1-2-4.23c-.05-.29-.11-.62-.15-1s-.13-.88-.2-1.32c-.34-3.18,1.48-6.71,5.12-10.46a48.62,48.62,0,0,1,6.51-5.51l0,0v0l0,0a18,18,0,0,1,.05.6.41.41,0,0,0,0,.11c0,.15.05.3.07.45a.31.31,0,0,0,0,.11c0,.15.06.3.08.44.16,1,.34,2,.56,3,0,.1,0,.19.05.3.13.55.25,1.11.38,1.65.51,2.18,1.08,4.22,1.69,6.18.16.53.33,1,.5,1.58l.66,1.87c.23.63.46,1.25.71,1.88.49,1.24,1,2.48,1.54,3.7.24.53.47,1,.72,1.56s.49,1,.75,1.52c.68,1.4,1.42,2.78,2.2,4.12h0c.44.79.91,1.57,1.38,2.37l.5.81h1c-.47,0-.92,0-1.38,0h-.18l-4.1.19h.19c1,0,1.91,0,2.84-.06l1.12,0h.07l1.43,0h.23l2.95-.12Zm-6-3a.67.67,0,0,1-.07-.11h-3c-1.74,0-3.56-.08-5.4-.1l.17.11c1.85,0,3.69.1,5.45.1Zm-.07-.11h-3c-1.74,0-3.56-.08-5.4-.1H218l-.33.07v0h1.25c1.85,0,3.69.1,5.45.1h2.85A.67.67,0,0,1,227.16,170Z"/><path class="cls-1" d="M378.53,147.84l.57-3a83.63,83.63,0,0,0,1.7-18.53A77.11,77.11,0,0,0,379.66,115c-.22-1.48-.56-2.84-.79-4.2l-.57-2.73,2.73.68a57.62,57.62,0,0,1,10.68,3.64c6.14,2.84,9.78,6.48,10.8,10.68.12.57.23,1.14.34,1.82.8,5.57-1.25,11-6.25,16.26l-.23.22-.34.12c-3.18,1.25-6.36,2.5-9.77,3.64-1.59.56-3.19,1.13-4.89,1.7Zm4.2-35.12.34,1.7a83.17,83.17,0,0,1,1.14,11.83,88.78,88.78,0,0,1-1.14,16.48l2.05-.68c3.18-1.14,6.25-2.28,9.32-3.53,4-4.43,5.69-8.86,5.12-13.18h0c-.12-.46-.12-.91-.23-1.48-.8-3.18-3.86-6-9-8.41A51.79,51.79,0,0,0,382.73,112.72Z"/><path class="cls-1" d="M449.35,179.67c-5.12-2.16-11.26-5.34-17.74-8.64l-3.75-1.93,1.59-3,3.75,1.94c6.48,3.29,12.51,6.48,17.51,8.52Z"/><path class="cls-1" d="M398,140.68l-2.16-2.61a84.19,84.19,0,0,1,28.41-15.23,10.16,10.16,0,0,0,1-.35l.79,3.3c-.22.11-.57.11-.79.23A81.8,81.8,0,0,0,398,140.68Z"/><path class="cls-1" d="M550.4,130.34c-10-.57-21.37-1.93-34-3.64l-1-.11c-13.3-1.59-27.06-3.3-40.58-4.21L475,119c13.65.8,27.4,2.5,40.81,4.21l1,.11c12.61,1.59,23.87,3,33.87,3.52Z"/><path class="cls-1" d="M386.94,144.66l-2.73-2c5.8-7.5,10.8-13.41,15.57-18.64,14.55-15.8,28.88-25.57,45.13-30.8l.34-.12c13.87-4.43,30.13-7.84,49.68-10.23,16.48-2,33.3-3.29,49.44-4.43l1.71-.11C562.56,77.14,578,76,592.8,74.07l.45,3.41c-14.89,1.93-30.46,3.07-46.94,4.21l-1.71.11c-16.14,1.14-32.85,2.39-49.33,4.43-19.33,2.39-35.47,5.69-49.11,10.12l-.34.11c-15.57,5-29.44,14.55-43.65,29.9C397.62,131.36,392.74,137.27,386.94,144.66Z"/><path class="cls-1" d="M383.87,127.27,381,125.45c3.07-4.77,5.8-8.87,8.41-12.5,13.64-19,27.17-31.83,42.85-40.47l.23-.11a2.36,2.36,0,0,0,.57-.35c11.94-6.59,26.37-12.39,43.88-18h.11c14.89-4.66,29.78-8.41,47.63-12.84l1-.23c14.67-3.63,28.53-7,41.72-11l1,3.18c-13.18,4-27.16,7.5-41.83,11.14l-1,.23C507.77,49,492.88,52.7,478,57.36h-.11c-17.28,5.46-31.49,11.25-43.31,17.73-.23.12-.34.23-.46.23l-.22.11c-15.12,8.42-28.42,20.92-41.72,39.56C389.67,118.52,386.94,122.61,383.87,127.27Z"/><path class="cls-1" d="M373.75,89.42l-2.95-1.71a132.76,132.76,0,0,1,18.07-25.12c.57-.57,1.14-1.25,1.71-1.82,7.39-7.61,16.82-15,28.64-22.51l.34-.22c10.35-6.6,21.49-12.51,32.85-18.53l1.71-.91c9.21-4.89,18-9.44,26-14.1l1.71,3c-8.19,4.77-16.94,9.32-26.15,14.21l-1.7.91c-11.49,6-22.62,11.93-33,18.53l-.34.22C409.11,48.61,400,55.77,392.85,63.16l-1.7,1.7A151.89,151.89,0,0,0,373.75,89.42Z"/><path class="cls-1" d="M330,51.79l-3.18-1.25c1.25-3.07,2.73-6.14,4.54-10,3.07-6.25,6.48-12.51,9.67-18.3l1.13-1.94c2.85-5.22,5.91-10.57,8.53-15.8L353.75,6c-2.62,5.23-5.69,10.69-8.53,15.92l-1.13,1.93c-3.19,5.8-6.6,11.93-9.67,18.19C332.6,45.77,331.13,48.84,330,51.79Z"/><path class="cls-1" d="M247,65.89c-2.27-2.62-4.77-5.12-7.5-7.85-4.66-4.66-9.55-9-15-13.86L223,42.92c-4.78-4.31-9.33-8.29-13.64-12.5L211.77,28c4.21,4.1,8.75,8.19,13.53,12.39l1.48,1.25c5.45,4.89,10.34,9.33,15.12,14,2.72,2.72,5.22,5.34,7.61,8Z"/><path class="cls-1" d="M426.26,125.68a149.72,149.72,0,0,1-28.87,15.23l-1.59.57c-3.18,1.25-6.37,2.5-9.78,3.64-1.22.43-2.44.87-3.71,1.3l-1.17.4-2.84.91.56-2.95c.05-.25.11-.49.14-.74-3.5,1.16-7.3,2.32-11.39,3.58-7.27,2.16-15.12,4.2-23.76,6.25s-17.62,4-26.94,5.68q-6.3,1.2-11.25,2c-3.18.45-7.05,1.14-11.37,1.82-9.77,1.59-18.53,2.84-26.82,3.75-8.87,1-17.28,1.82-25.24,2.27-3.63.21-7.35.32-10.92.41h-.38c.16.29.33.56.5.83l1.57,2.47h.23c2.12-.06,4.23-.15,6.31-.25l3.16-.17c8-.46,16.48-1.25,25.33-2.27,8.3-.91,17.05-2.16,26.94-3.76,1.83-.23,3.58-.5,5.24-.77l2.87-.48,1-.18c.78-.12,1.53-.26,2.23-.38,3.3-.57,7.16-1.25,11.37-2.05,9.43-1.71,18.53-3.64,27.17-5.68,3.85-.9,7.53-1.82,11.07-2.77l.19,0c4.43-1.17,8.64-2.37,12.72-3.56,4.43-1.25,8.53-2.61,12.39-3.86.34-.12.68-.23,1-.36,1.33-.44,2.61-.89,3.88-1.35,3.41-1.14,6.59-2.39,9.77-3.64l1.6-.57c11.59-4.77,21.25-9.88,28.87-15.23,11.31-3.17,25.55-4.31,43.63-3.53l.13-.1C452,121.36,437.63,122.5,426.26,125.68ZM216.79,169.77l-.73.12H216c-2.09-.07-4.12-.16-6.11-.29-2.29-.12-4.5-.29-6.66-.51a129.1,129.1,0,0,1-12.95-1.82h0a92,92,0,0,1-11.29-2.84l-.35-.11h-.34c-2.12.24-4.28.53-6.49.91h0c-11.68,1.95-24.55,5.86-39.76,12.27l-3.73,1.59-.25.12.26.1L132,180.7c18.76,7,45.35,10.45,79.11,10h.64c9.82-.13,20.41-.57,31.31-1.36l1.93-.11c.68-.11,1.48-.11,2.27-.23l.91-.11c4.55-.34,9-.68,13.3-1.14,2.62-.22,5.12-.56,7.5-.79l4.89-.57c2.16-.23,4.32-.57,6.37-.8l.57-.11q10.23-1.2,19.77-2.73c3.41-.45,6.26-.91,8.64-1.36s5.35-.91,8.19-1.59c6.7-1.25,13.3-2.62,19.89-4.1,2.27-.45,4.55-.91,6.93-1.47l4.66-1.14c2.16-.57,4.32-1,6.6-1.59,4.09-.91,8.3-2.05,12.61-3.18l2.62-.69c1-.22,1.93-.56,2.95-.79l.35-.12c10.29-2.91,20.26-5.93,29.57-9.06l.43-.14h.12C436,146.71,460,134.77,475.6,122l3.07-2.53.22-.2-4.32-.22c-21.14-1.37-36.94-.23-49.56,3.41l-.34.11-.34.23a142.23,142.23,0,0,1-28.42,15l-1.59.57c-3.07,1.25-6.36,2.5-9.66,3.64l-1.53.54s0,0-.05,0l-3.19,1.13L379,144c-3.5,1.16-7.3,2.32-11.39,3.58-7.27,2.16-15.12,4.2-23.76,6.25s-17.62,4-26.94,5.68q-6.3,1.2-11.25,2c-3.18.45-7.05,1.14-11.37,1.82-9.77,1.59-18.53,2.84-26.82,3.75-8.87,1-17.28,1.82-25.24,2.27-3.63.21-7.35.32-10.92.41h-.38l-1,0c-.93,0-1.83.08-2.74.1h-3.05c-1.74,0-3.56-.08-5.4-.1h-1.31V170l.23,0v0h1.25c1.85,0,3.69.1,5.45.1h2.85a.67.67,0,0,1-.07-.11h.07c.44.79.91,1.57,1.38,2.37l.5.81h1c1,0,1.94,0,2.92,0h.23c2.12-.06,4.23-.15,6.31-.25l3.16-.17c8-.46,16.48-1.25,25.33-2.27,8.3-.91,17.05-2.16,26.94-3.76,1.83-.23,3.58-.5,5.24-.77l2.87-.48,1-.18c.78-.12,1.53-.26,2.23-.38,3.3-.57,7.16-1.25,11.37-2.05,9.43-1.71,18.53-3.64,27.17-5.68,3.85-.9,7.53-1.82,11.07-2.77l.19,0c4.43-1.17,8.64-2.37,12.72-3.56,4.43-1.25,8.53-2.61,12.39-3.86.34-.12.68-.23,1-.36,1.33-.44,2.61-.89,3.88-1.35,3.41-1.14,6.59-2.39,9.77-3.64l1.6-.57c11.59-4.77,21.25-9.88,28.87-15.23,11.31-3.17,25.55-4.31,43.63-3.53h.25c-15.24,11.48-37.63,22.16-66.73,32.05h-.11l-4.5,1.5c-8.1,2.65-16.59,5.2-25.4,7.6l-.34.11c-1,.23-1.93.57-3,.8l-3.18.79c-4.09,1.14-8.18,2.16-12.05,3.07-2.27.57-4.43,1-6.59,1.59l-4.66,1.14c-2.39.45-4.66,1-6.93,1.48-6.6,1.36-13.19,2.73-19.78,4-3.19.56-6,1-8.53,1.47s-5.23.91-8.52,1.37c-6.26.91-13,1.93-19.67,2.73l-.57.11c-2,.34-4.2.57-6.36.8l-4.89.56c-2.39.34-4.89.57-7.39.8-4.32.34-8.75.8-13.19,1.14l-.79.11c-.8.11-1.48.11-2.27.23l-1.94.11c-9.86.71-19.38,1.14-28.37,1.31l-3.46.06h-.79c-30.29.29-54.71-2.41-72.6-8.22l-.17-.05-.09,0c15.69-6.32,28.58-9.85,40.8-11.22l-.11,0q-3.23-1-6.12-2.27c2.2-.37,4.35-.68,6.46-.91h0l.32,3.18c1-.11,1.93-.11,3-.22a64.83,64.83,0,0,1,8-.13,136.22,136.22,0,0,0,14.11,2c2,.19,4,.34,6.11.47s4.1.21,6.21.28h.11l.38-.08.43-.06.33-.05"/><path class="cls-1" d="M218.14,115.56a132.38,132.38,0,0,0-24.78-17l-2.73-1.36c-9.55-4.66-20.69-8.3-34-11.37-11.59-2.73-23.76-4.55-36.15-6.48l-2-.34c-10.35-1.59-20.12-3.07-29.56-4.89l.69-3.3c9.43,1.82,19.21,3.3,29.44,4.89l2,.34c12.51,1.94,24.67,3.75,36.38,6.48a162.87,162.87,0,0,1,34.67,11.6l2.73,1.36A130.67,130.67,0,0,1,220.3,113Z"/><path class="cls-1" d="M221.32,156c-4.55-3.53-8.75-6.71-12.84-9.55-18.53-13-35-20.69-51.95-24.1l-1.14-.23c-13-2.5-28.08-3.41-46.38-2.72h-.11c-16.48.56-33.65,2.27-48.77,3.75h-.34c-15.68,1.59-30.46,3.07-44.21,3.63l-.12-3.41c13.64-.56,28.42-2,44-3.63h.34c15.12-1.48,32.29-3.19,48.88-3.75h.12c18.52-.69,34,.22,47.17,2.84l1.14.22c17.39,3.53,34.33,11.37,53.19,24.67,4.1,3,8.42,6,13,9.66Z"/><path class="cls-1" d="M225.41,170.12h-1c-1.76,0-3.6-.08-5.45-.1l-.17-.11h0c-3.91-2.47-7.47-4.58-10.85-6.47-1.51-.84-3-1.65-4.43-2.41-.14-.07-.26-.14-.4-.2v0c-17.55-9.3-33.07-13.91-48.79-14.5-.72,0-1.46-.05-2.19-.06H150.7c-13.41,0-28.77,1.94-47,5.79l-1.71.35-1.38.3C85.24,156,69.75,160.3,55.86,164.16l-1.87.51-1.67.44h0c-16.15,4.55-31.38,8.76-45.59,11.71L6,173.53c14-2.94,29.18-7.11,45.13-11.64l.23-.06,1.7-.46,1.57-.43c13.94-3.87,29.59-8.16,45-11.62l1.51-.34,1.55-.33c18.07-3.87,33.37-5.82,46.69-5.91.75,0,1.5,0,2.23,0h.23l.9,0c16.16.35,32,4.71,49.55,13.72l2.64,1.38.76.41c5.76,3.08,12.08,6.9,19.52,11.75h0Z"/><path class="cls-1" d="M217.12,169.87l-.43.06-.38.08h-.11q-3.16-.1-6.21-.28c-2.09-.13-4.13-.28-6.11-.47l-.68-.16c-.3-.08-.6-.14-.9-.2a71.55,71.55,0,0,0-11.22-1.57h0l-.79-.05h-.48a64.83,64.83,0,0,0-8,.13c-1,.11-1.93.11-3,.22l-.32-3.18v-.23a28.8,28.8,0,0,1,3.07-.22,75.56,75.56,0,0,1,24.83,2.42q3.79,1,7.7,2.34l1,.35h.23l.34.23.93.36.23.08a1.22,1.22,0,0,0,.3.08Z"/><path class="cls-1" d="M64.8,212.64l-1.26-3.07c9.78-4.1,20-9.1,30.81-14.44l.8-.34c12-5.91,24.43-12,36.94-17.28l1.25,3.07c-12.39,5.23-24.78,11.25-36.72,17.17l-.79.45C84.92,203.54,74.68,208.54,64.8,212.64Z"/><path class="cls-1" d="M312,197.86c-1.59.23-3.3.57-5.11.79-3.42.57-7.28,1.14-11.49,1.82l-1,.12-5.23.68c-1.82.23-3.75.57-5.79.79H283c-3.06.46-6.36.8-9.66,1.26H273l-4.2.45A762.07,762.07,0,0,1,192.11,209l-4,.11,2.73-3a267.52,267.52,0,0,1,19.21-18.76l.45-.45h.57c11.25-.12,23.42-.69,36-1.71l.91-.11c4.55-.34,9-.8,13.19-1.14,2.61-.23,5.23-.57,7.73-.79l4.55-.57c2.16-.23,4.2-.46,6.13-.8l.69-.11c6.82-.8,13.41-1.82,19.66-2.73q4.95-.69,8.53-1.36c2.5-.46,5.34-.91,8.52-1.48,6.59-1.25,13.19-2.62,19.78-4,2.27-.46,4.55-1,6.93-1.48l5.12-1.25c2.05-.45,4.09-.91,6.14-1.48q5.79-1.36,11.93-3.07h0l3.19-.79c11.59-3.18,22.73-6.48,33.07-10l.69-.12.45.12c8.41,3.29,16.94,7.61,24.9,11.7l3.63,1.82L429,168.87a771.68,771.68,0,0,1-74.8,20.35l-6.82,1.48c-2.5.57-4.89,1-7.16,1.48l-2.16.45-3.64.68c-1.25.23-2.61.57-3.86.8l-2.16.45c-4.21.8-8.07,1.48-11.48,2.16A25.44,25.44,0,0,1,312,197.86Zm-39.33,2.27h.45c3.19-.34,6.37-.79,9.44-1.25h.34c1.93-.23,3.87-.57,5.68-.79s3.64-.46,5.23-.69l.91-.11c4.21-.68,8-1.25,11.37-1.7a44.22,44.22,0,0,1,5.11-.8c1.6-.23,3.3-.57,5-.91,3.41-.57,7.27-1.36,11.48-2.16l2.16-.45c1.25-.23,2.5-.46,3.86-.8,1.14-.23,2.39-.45,3.53-.68l2.16-.46c2.27-.45,4.66-1,7.16-1.47l6.7-1.48c25.35-5.69,49.11-12,70.59-19-6.59-3.41-13.52-6.7-20.34-9.43-10.23,3.41-21.26,6.82-32.74,9.89l-2.62.68c-4.32,1.14-8.52,2.28-12.61,3.18-2.05.46-4.1,1-6.14,1.48l-5.23,1.25c-2.39.57-4.66,1-6.93,1.48-6.6,1.48-13.3,2.84-19.9,4.09-3.18.57-6,1.14-8.52,1.48s-5.23.91-8.64,1.36q-9.56,1.54-19.78,2.73l-.68.12c-2.05.22-4.09.45-6.25.79l-4.55.57c-2.5.23-5.12.57-7.84.8-4.32.45-8.76.79-13.3,1.13l-.91.12c-12.51.91-24.44,1.47-35.58,1.7-5.35,4.66-10.69,10-15.69,15.23,22.39-.45,46.72-2.27,72.3-5.23l4.77-.68Z"/><path class="cls-1" d="M176.42,225.94l-2.27-2.51c4.09-3.63,8.86-8.75,13.86-14.09l2.85-3.07,2.5,2.39-2.84,3C185.4,217.07,180.63,222.18,176.42,225.94Z"/><rect class="cls-1" x="391.04" y="138.02" width="3.41" height="24.89" transform="translate(84.78 436.9) rotate(-63.89)"/><path class="cls-1" d="M228.7,173.22l-.12.11h0c-1.12,1.09-8.74,8.52-14,13.78a1.36,1.36,0,0,1-.17.17l-1.82,1.83-2.49-1.72.23-.22.23-.23s11.17-12,13.86-13.53h0l4.1-.19Z"/><path class="cls-1" d="M230.08,173.19c-.47,0-.92,0-1.38,0h-.18l-4.1.19H220.2c-1.33,0-2.66-.08-3.9-.14-.34,0-.67,0-1,0h-.37a.52.52,0,0,0-.17,0h0l-.51,0-.54,0-.41,0-.75,0-.35,0h-.31a3.36,3.36,0,0,1-.56,0l-.6,0h-.31a159.41,159.41,0,0,1-22-2.72c-1.31-.27-2.6-.56-3.86-.85L183,169c-1.51-.41-3-.83-4.38-1.27l-.34-.08-.11,0q-3.23-1-6.12-2.27c2.2-.37,4.35-.68,6.46-.91h0l.32,3.18c1-.11,1.93-.11,3-.22a64.83,64.83,0,0,1,8-.13,136.22,136.22,0,0,0,14.11,2c2,.19,4,.34,6.11.47s4.1.21,6.21.28h.11l.38-.08.43-.06.33-.05V170l.23,0v0h1.25c1.85,0,3.69.1,5.45.1h2.85a.67.67,0,0,1-.07-.11h.07c.44.79.91,1.57,1.38,2.37l.5.81Z"/><path class="cls-1" d="M383.47,140.21c-.12.8-.24,1.61-.39,2.41-.18,1-.39,2.06-.61,3.09l-.16.71-.05.16v.07l-.91.31c-4.44,1.48-8.79,2.79-12.45,3.89-4,1.18-8.21,2.34-12.75,3.51l-.19,0c-3.48.9-7.14,1.8-11,2.72-9.76,2.35-18.81,4.13-27.13,5.7-3.51.67-7.14,1.31-11.39,2.05l-2.3.41-1,.18-2.87.48c-1.63.25-3.41.51-5.24.76-9.62,1.56-18.46,2.79-27,3.75-8.75,1-17.3,1.75-25.43,2.29l-3,.17c-2.08.1-4.19.19-6.31.25H233c-1,0-1.94,0-2.92,0h-1l-.5-.81c-.47-.8-.94-1.58-1.38-2.37h0c-.78-1.38-1.52-2.75-2.2-4.12-.26-.51-.51-1-.75-1.52s-.48-1-.72-1.56c-.57-1.24-1.08-2.47-1.54-3.7-.25-.63-.48-1.25-.71-1.88s-.46-1.35-.68-2l-.48-1.42c-.61-2-1.18-4-1.69-6.18-.13-.54-.25-1.1-.38-1.65,0-.11,0-.2-.05-.3-.13-.57-.25-1.14-.36-1.73s-.19-.95-.28-1.44l-.23-1.5-.46-3c0-.22-.05-.43-.07-.65a82.6,82.6,0,0,1,.76-23.45,83.45,83.45,0,0,1,12.87-32.1c1-1.56,2.12-3.07,3.26-4.56l0,0a90.41,90.41,0,0,1,13.42-13.87,84.66,84.66,0,0,1,31.54-16.16q2.65-.72,5.37-1.25l4.14-.7a83.66,83.66,0,0,1,77.32,30.39c.48.59,1,1.19,1.42,1.79s.87,1.14,1.28,1.71,1,1.36,1.45,2q2.12,3.12,4,6.42a84.84,84.84,0,0,1,8.46,22.07c.22.7.43,1.38.59,2.06a26.38,26.38,0,0,1,.58,2.78,1.11,1.11,0,0,1,0,.17c.17,1,.32,2,.45,3,.11.74.2,1.48.27,2.23s.13,1.49.19,2.23.1,1.45.14,2.2.06,1.33.09,2v.17A77.31,77.31,0,0,1,383.47,140.21Z"/><path class="cls-1" d="M676.81,175l7.4-12c6.68,5.82,16.63,8.73,25.49,8.73,18.2,0,27.18-11.65,27.18-29V142c-3.4,6.92-12.5,14.56-28,14.56-23.54,0-39.08-18.2-39.08-41.13s15.54-41.27,39.08-41.27c12.86,0,24.39,6.07,28.88,14.45V75.82h18.2v65.66c0,29.73-19.9,44.65-44.41,44.65C697,186.26,684.7,182,676.81,175Zm60.07-60.19A23.5,23.5,0,0,0,713,90.87c-13.47,0-23.79,10.44-23.79,24.64S699.51,139.9,713,139.9C726.69,139.9,736.88,129.58,736.88,114.78Z"/><path class="cls-1" d="M771.23,75.82h19V92.69c3.28-8.61,12.5-18.57,30.82-18.57V94.88c-18.69,0-30.82,9-30.82,31.31v34.7h-19Z"/><path class="cls-1" d="M830.2,118.54c0-24.63,16-44.42,39.32-44.42,11.53,0,21.73,4.62,28.4,12.5V75.82H917v85.07H897.92V150.21c-6.67,7.89-16.87,12.38-28.4,12.38C846.22,162.71,830.2,142.93,830.2,118.54Zm67.72,0c0-14.93-9.95-26-23.54-26-14.44,0-24.76,11-24.76,26s10.32,25.85,24.76,25.85C887.73,144.27,897.92,133.71,897.92,118.54Z"/><path class="cls-1" d="M928,75.82h19.05l17.35,43c4.49,11.05,7.89,22.82,7.89,22.82s3.64-12,7.89-22.7l17.23-43.2h19.05l-35,85.44H963.09Z"/><path class="cls-1" d="M1025.46,52A11.59,11.59,0,1,1,1037,63.57,11.71,11.71,0,0,1,1025.46,52Zm2.07,23.78h19.17v85.07h-19V75.82Z"/><path class="cls-1" d="M1071.21,133.71V91.6h-12.5V76h12.5V59.2l19.06-4V75.82h25.6V91.48h-25.48v42.59c0,9.11,4.25,12,9.1,12,6.67,0,12.38-4.13,12.38-4.13l5.7,14.32a37.09,37.09,0,0,1-20.51,6.31C1079.71,162.71,1071.21,153.25,1071.21,133.71Z"/><path class="cls-1" d="M1139.17,168.42c10.2,0,14.44-3.64,18.69-12.26l1.7-3.4L1122.79,76h19.66L1163,121.33c2.55,5.71,5.46,13.47,5.46,13.47s3.76-10,5.46-14.32L1192.33,76h19.29l-38.83,89c-8.74,19.78-23.55,21.48-33.5,21.48v-18Z"/><path class="cls-1" d="M1254.82,135.41V161h-3.27V47.91h3.27v57.28c5-15.77,20.15-27.3,36.65-27.3,22.82,0,39.69,18.2,39.69,42.47s-16.87,42.47-39.69,42.47C1275,162.71,1259.8,151.18,1254.82,135.41Zm72.94-15.17c0-22.57-15.66-39.2-36.29-39.2-20.14,0-36.65,17.6-36.65,39.2s16.51,39.2,36.65,39.2C1312.1,159.44,1327.76,142.81,1327.76,120.24Z"/><path class="cls-1" d="M1353.36,79.46h3.28V98.88c7.4-15.29,20.75-21.11,34.71-21.11V81c-21,0-34.71,14.81-34.71,32V161h-3.28Z"/><path class="cls-1" d="M1406.76,56.65a3.76,3.76,0,1,1,3.76,3.76A3.78,3.78,0,0,1,1406.76,56.65Zm2.06,22.81h3.28V161h-3.28Z"/><path class="cls-1" d="M1434.31,120.24c0-24.27,16.86-42.47,39.68-42.47,16.5,0,31.67,11.52,36.65,27.3V47.79h3.27v113.1h-3.27v-25.6c-5,15.77-20.15,27.3-36.65,27.3C1451.17,162.71,1434.31,144.51,1434.31,120.24Zm76.33,0c0-21.72-16.51-39.2-36.65-39.2-20.63,0-36.29,16.63-36.29,39.2s15.66,39.2,36.29,39.2C1494.13,159.44,1510.64,142,1510.64,120.24Z"/><path class="cls-1" d="M1546.44,172.3l2.42-2.43A35.79,35.79,0,0,0,1576.41,183c7.77,0,35.92-4,35.92-40.53v-11c-3.76,14-19.41,26.1-36.65,26.1-22.33,0-39.68-17.6-39.68-39.93s17.35-39.93,39.68-39.93c17.24,0,32.89,12.26,36.65,26.1V79.34h3.28v63.59c0,40-31.31,43.33-39.32,43.33A39,39,0,0,1,1546.44,172.3Zm65.89-56.19c0-17.71-16.87-35.07-36.65-35.07-20.26,0-36.28,16-36.28,36.65s16,36.65,36.28,36.65C1596.31,154.34,1612.33,138.32,1612.33,116.11Z"/><path class="cls-1" d="M1637.7,120.24c0-23.91,17-42.47,39.19-42.47,21.85,0,38.71,18.56,38.71,42.47v1.58h-74.51c.73,21.48,16.63,37.62,37,37.62,10.8,0,21.11-4.25,28-11.41l2.43,2.43a43.77,43.77,0,0,1-30.46,12.25C1655.41,162.71,1637.7,144.15,1637.7,120.24Zm74.51-1.58c-.73-21-15.78-37.62-35.2-37.62-19.9,0-35.07,16.14-35.8,37.62Z"/></svg>