<svg id="Layer_1" data-name="Layer 1" xmlns="http://www.w3.org/2000/svg" viewBox="0 0 874.12 204.12"><path d="M58,177.8l-.94-2.33c7.4-3.09,15.14-6.88,23.31-10.92l.61-.26c9.12-4.47,18.49-9.12,28-13.08l.94,2.33c-9.37,4-18.75,8.51-27.79,13l-.6.34C73.29,170.91,65.55,174.7,58,177.8Z"/><path d="M141.52,187.85,139.8,186c3.1-2.75,6.71-6.62,10.5-10.67l2.15-2.32,1.89,1.81L152.19,177C148.32,181.14,144.71,185,141.52,187.85Z"/><path d="M249.47,178.11l-4.65.78h-.34c-.35.08-.69.08-1,.17l-1.21.17c-60.94,10-112.45,11.24-157.45,4.05-12.13-2-29.94-5.34-45.17-11.88-18-7.74-28.22-18.24-30.37-31.23C3.82,108.47,50.89,83,66.38,74.61c41.13-22.28,91.8-38.29,154.87-48.95S337.48,13.35,383.6,20.84h0c30.11,4.9,70.72,14.62,75.54,43.1S428.82,115,402,129.47c-40.09,21.68-89.13,37.43-150,48.1l-1.21.17c-.34.09-.68.09-1,.17C249.64,178.11,249.55,178.11,249.47,178.11Zm-5.25-1.72h.17l4.73-.86h.09c.34-.08.69-.08,1-.17l1.21-.17C311.9,164.61,360.68,149,400.61,127.35c60.91-32.95,57-55.49,55.83-62.89-5-29.94-56.44-38.29-73.3-40.95h0c-45.86-7.4-98.68-5.86-161.49,4.81S108.54,54.91,67.59,77c-60.92,33-57,55.49-55.84,62.89,5.07,29.94,56.52,38.2,73.39,41,44.74,7.22,96,5.93,156.67-4l1.21-.17c.34-.08.68-.08,1-.17Z"/><path d="M245,166c-1.2.18-2.49.43-3.87.61-2.58.43-5.5.86-8.69,1.37l-.34.09c-1.38.17-2.84.43-4.39.6-1.38.17-2.84.43-4.39.6h-.26c-2.32.35-4.81.6-7.31.95h-.34l-3.19.34c-.86.09-1.8.18-2.66.35h-.18c-19.53,2.15-38.11,3.44-55.15,3.7-31,.43-55.83-2.41-73.73-8.43-17.12-5.77-28-14.55-32.35-26.07A32.21,32.21,0,0,1,46.51,134c-1.55-9,.68-18,6.62-26.5C61.39,95.6,77.05,84.25,99.68,73.84c21.14-9.81,48-18.67,79.67-26.37,20-4.9,36.13-7.83,44-9.12s24.23-3.88,44.53-6c22.37-2.24,55.06-4.3,84.06-1.47,24.86,2.41,43.45,8,55.15,16.7,8.17,6.1,13.16,13.68,14.62,22.71a34.15,34.15,0,0,1,.44,6.54h0c-.35,12.3-7.66,24.09-21.69,35-14.88,11.61-37.42,22.54-66.93,32.35-16.35,5.42-34.33,10.32-53.52,14.71a15.5,15.5,0,0,1-2,.43l-6.62,1.46-5,1-1.64.35-2.75.51c-1,.18-2,.43-3,.61l-1.64.34c-3.18.6-6.11,1.12-8.69,1.63A32.83,32.83,0,0,1,245,166Zm-29.76,1.72h.43c2.4-.25,4.81-.6,7.14-.94h.25c1.47-.17,2.93-.43,4.39-.6s3-.44,4.39-.61l.34-.08c3.19-.52,6-.95,8.61-1.29s4.9-.78,7.66-1.29c2.58-.43,5.5-1,8.69-1.64l1.63-.34c.95-.18,2-.35,2.93-.61l2.66-.51,1.64-.35,5-1,6.62-1.46c.69-.17,1.29-.26,2-.43,19.1-4.3,37-9.29,53.26-14.63C362.12,132.2,384.4,121.45,399,110c13.39-10.53,20.36-21.62,20.71-33.15h0a29.42,29.42,0,0,0-.43-6c-1.38-8.35-6-15.4-13.68-21.08-11.36-8.37-29.43-13.88-53.81-16.2C323,30.82,290.47,32.8,268.27,35c-20.3,2-36.56,4.56-44.39,5.85S200,45.19,180.09,50C149,57.58,121.53,66.61,100.82,76.25,78.6,86.47,63.28,97.47,55.28,109c-5.5,7.91-7.57,16.26-6.19,24.6a30,30,0,0,0,1.55,5.68c4,10.84,14.36,19.1,30.8,24.61,17.64,5.93,42.16,8.69,72.87,8.26,17-.26,35.53-1.47,55-3.7h.17a22.18,22.18,0,0,0,2.67-.35l3.1-.43Z"/><path d="M144.41,140.78l-.26-.09h-.24l.24,2.41c.78-.09,1.47-.09,2.24-.17a51.17,51.17,0,0,1,6.07-.1A67.32,67.32,0,0,1,144.41,140.78Zm23.88,6.38h0Zm4.24-2.26h0l.28-.06Zm.95-.15h-.07v.14h.17m248-74.42c-1.46-9-6.45-16.6-14.62-22.71-11.7-8.68-30.29-14.29-55.18-16.68-29-2.84-61.69-.78-84.06,1.46-20.3,2.07-36.65,4.56-44.57,5.94s-23.92,4.21-44,9.12C147.53,55.34,120.68,64.2,99.52,74,77,84.47,61.3,95.78,53,107.65c-5.94,8.52-8.17,17.47-6.62,26.5a30.06,30.06,0,0,0,1.11,4.61c.17.51.34,1,.52,1.5.12.32.24.63.37.94,4.53,11.06,15.32,19.52,32,25.13,17.9,6,42.76,8.86,73.73,8.43h.52l.35-.43c4.46-4.72,9.26-9.61,14.07-13.77l.29-.25,2.67-2.33h-4.13c-23,.23-41.48-1.83-55-6.24h-.12l.16-.06c11.89-4.78,21.74-7.43,30.81-8.46h.06a101.92,101.92,0,0,0,24.28,4h0a120.88,120.88,0,0,1-16.65-2c-1-.21-2-.43-2.93-.65l-1.19-.29c-1.14-.31-2.24-.63-3.31-1l-.26-.06h-.08c-1.63-.53-3.18-1.1-4.63-1.72-8.85,1.47-18.61,4.44-30.13,9.29l-2.81,1.2-.18.08h0l3,1.12c13.51,5.07,32.52,7.66,56.44,7.57-4,3.61-7.92,7.66-11.62,11.53-30.45.43-54.72-2.41-72.27-8.26-15.84-5.31-26-13.17-30.33-23.45-.17-.37-.32-.77-.47-1.16s-.31-.84-.45-1.27a30.25,30.25,0,0,1-1.1-4.41c-1.37-8.34.69-16.69,6.2-24.6,7.94-11.67,23.25-22.67,45.48-32.89C121.56,66.61,149,57.58,180.06,50c19.88-4.82,36-7.83,43.79-9.12S248,37,268.25,35c22.2-2.24,54.72-4.22,83.54-1.47,24.44,2.33,42.5,7.83,53.86,16.18,7.63,5.72,12.28,12.72,13.65,21.08a28.06,28.06,0,0,1,.43,6C419.39,88.36,412.42,99.46,399,110c-14.54,11.36-36.66,22.12-65.65,31.75-4.82-2.49-10-5.07-15.14-7.31,22.45-7.92,39.61-16.5,50.93-25.62l2.5-2.07h-.52l-2.75-.15c-16-1-28-.17-37.51,2.58l-.26.09-.26.17a107.39,107.39,0,0,1-21.52,11.34l-1.2.43c-2.33,1-4.82,1.89-7.32,2.75l-1.55.52c0-.09,0-.18.05-.28.1-.6.19-1.2.25-1.8a68.14,68.14,0,0,0,.56-10.4,13,13,0,0,0-.07-1.65c-.07-.55-.06-1.11-.1-1.67s-.09-1.12-.14-1.68-.12-1.13-.2-1.69c-.11-.75-.22-1.5-.35-2.26s-.31-1.49-.45-2.23c-.07-.38-.15-.75-.23-1.12a62.69,62.69,0,0,0-6.37-16.78q-1.5-2.69-3.25-5.22c-.36-.52-.72-1-1.1-1.55a12.36,12.36,0,0,0-1-1.29c-.37-.42-.71-.91-1.08-1.36a64.88,64.88,0,0,0-14-12.78,61.91,61.91,0,0,0-13.41-6.79,64.21,64.21,0,0,0-30.72-3.19c-1,.08-2,.31-3,.48h-.27a64.4,64.4,0,0,0-28,13.2,59.16,59.16,0,0,0-10,10.19l-.25.31a63.83,63.83,0,0,0-5.27,8c-.31.56-.61,1.12-.89,1.69s-.47.9-.68,1.37-.38.77-.55,1.17a60.69,60.69,0,0,0-2.31,5.76h0c-.18.52-.35,1.06-.52,1.58S175,95.5,174.87,96s-.23.82-.33,1.23a.32.32,0,0,1-.06.23,1.27,1.27,0,0,0-.11.41c-.1.36-.18.73-.27,1.1a.28.28,0,0,0,0,.13v.11c-.07.29-.13.58-.19.87s-.11.52-.16.79c-.12.55-.22,1.11-.31,1.67-.22,1.25-.4,2.5-.54,3.74-.06.42-.1.85-.13,1.29s-.1,1.13-.13,1.71a61.18,61.18,0,0,0,0,7.66c.05,1,.13,2.06.24,3.08,0,.23.05.45.07.67.1.73.21,1.42.31,2.1a.93.93,0,0,0,.07.43.08.08,0,0,0,0,.07v.35a.11.11,0,0,0,0,.08,1,1,0,0,0,.06.42,4.6,4.6,0,0,0,.15.89,62.29,62.29,0,0,0,2.26,8.74,61.3,61.3,0,0,0,4.93,11h.09c.33.6.68,1.19,1,1.79l.37.62h-.37l-3.11.15h.11c.73,0,1.44,0,2.15-.05h1.94l2.23-.09h0L184,145.47c-.13-.21-.26-.41-.38-.63a59.93,59.93,0,0,1-7.79-21.19c-.18-1.11-.35-2.15-.43-3.27q-.1-.9-.18-1.8a58.32,58.32,0,0,1,.69-15.66,60.45,60.45,0,0,1,11.7-26.67c.84-1.06,1.71-2.1,2.6-3.11a60.38,60.38,0,0,1,7.21-7,61.81,61.81,0,0,1,26.85-12.56h.24l1.3-.22,1.55-.26a61.45,61.45,0,0,1,29.47,3.1A60.7,60.7,0,0,1,295.37,100c.17,1,.43,2.07.6,3.19a60.67,60.67,0,0,1,.86,8.6,62.75,62.75,0,0,1-1.19,13.47,3.53,3.53,0,0,1-.1.55l-.43,2.24,2.15-.69.89-.3c1-.32,1.88-.66,2.81-1,2.58-.86,5-1.8,7.4-2.75l1.2-.43a113.3,113.3,0,0,0,21.86-11.53c8.6-2.41,19.44-3.27,33.21-2.67l-.11.08C353,117.41,336,125.56,314,133l-3.36,1.12h0l3.23,1.27.28.11a188.14,188.14,0,0,1,18.31,8.58l.51.26h.35c29.51-9.81,52.05-20.74,66.93-32.35,14-10.93,21.34-22.72,21.68-35A33.34,33.34,0,0,0,421.62,70.47ZM173.48,144.75h-.07v.14h.17m-.75,0-.3.06h0Zm-.11,2.56h2.73l-2.95-.1h-1.17m-27.46-6.63.24,2.41c.78-.09,1.47-.09,2.24-.17a51.17,51.17,0,0,1,6.07-.1,66.54,66.54,0,0,1-8-2.05l-.26-.09Zm.5.09-.26-.09h-.24l.24,2.41c.78-.09,1.47-.09,2.24-.17a51.17,51.17,0,0,1,6.07-.1,66.81,66.81,0,0,1-8-2.08Zm28.12,4.12h0l.28-.06Zm.95-.15h-.07v.14h.17m-.1-.12h-.07v.14h.17m-1,0h0l.28-.06Zm-28.12-4.12-.26-.09h-.24l.24,2.41c.78-.09,1.47-.09,2.24-.17a51.17,51.17,0,0,1,6.07-.1,67.63,67.63,0,0,1-8.06-2.09Z"/><path d="M144.41,140.78l-.26-.09h-.24l.24,2.41c.78-.09,1.47-.09,2.24-.17a51.17,51.17,0,0,1,6.07-.1A67.32,67.32,0,0,1,144.41,140.78Zm23.88,6.38h0Zm4.24-2.26h0l.28-.06Zm.95-.15h-.07v.14h.17m248-74.42c-1.46-9-6.45-16.6-14.62-22.71-11.7-8.68-30.29-14.29-55.18-16.68-29-2.84-61.69-.78-84.06,1.46-20.3,2.07-36.65,4.56-44.57,5.94s-23.92,4.21-44,9.12C147.53,55.34,120.68,64.2,99.52,74,77,84.47,61.3,95.78,53,107.65c-5.94,8.52-8.17,17.47-6.62,26.5a30.06,30.06,0,0,0,1.11,4.61c.17.51.34,1,.52,1.5.12.32.24.63.37.94,4.53,11.06,15.32,19.52,32,25.13,17.9,6,42.76,8.86,73.73,8.43h.52l.35-.43c4.46-4.72,9.26-9.61,14.07-13.77l.29-.25,2.67-2.33h-4.13c-23,.23-41.48-1.83-55-6.24h-.12l.16-.06c11.89-4.78,21.74-7.43,30.81-8.46h.06a101.92,101.92,0,0,0,24.28,4h0a120.88,120.88,0,0,1-16.65-2c-1-.21-2-.43-2.93-.65l-1.19-.29c-1.14-.31-2.24-.63-3.31-1l-.26-.06h-.08c-1.63-.53-3.18-1.1-4.63-1.72-8.85,1.47-18.61,4.44-30.13,9.29l-2.81,1.2-.18.08h0l3,1.12c13.51,5.07,32.52,7.66,56.44,7.57-4,3.61-7.92,7.66-11.62,11.53-30.45.43-54.72-2.41-72.27-8.26-15.84-5.31-26-13.17-30.33-23.45-.17-.37-.32-.77-.47-1.16s-.31-.84-.45-1.27a30.25,30.25,0,0,1-1.1-4.41c-1.37-8.34.69-16.69,6.2-24.6,7.94-11.67,23.25-22.67,45.48-32.89C121.56,66.61,149,57.58,180.06,50c19.88-4.82,36-7.83,43.79-9.12S248,37,268.25,35c22.2-2.24,54.72-4.22,83.54-1.47,24.44,2.33,42.5,7.83,53.86,16.18,7.63,5.72,12.28,12.72,13.65,21.08a28.06,28.06,0,0,1,.43,6C419.39,88.36,412.42,99.46,399,110c-14.54,11.36-36.66,22.12-65.65,31.75-4.82-2.49-10-5.07-15.14-7.31,22.45-7.92,39.61-16.5,50.93-25.62l2.5-2.07h-.52l-2.75-.15c-16-1-28-.17-37.51,2.58l-.26.09-.26.17a107.39,107.39,0,0,1-21.52,11.34l-1.2.43c-2.33,1-4.82,1.89-7.32,2.75l-1.55.52c0-.09,0-.18.05-.28.1-.6.19-1.2.25-1.8a68.14,68.14,0,0,0,.56-10.4,13,13,0,0,0-.07-1.65c-.07-.55-.06-1.11-.1-1.67s-.09-1.12-.14-1.68-.12-1.13-.2-1.69c-.11-.75-.22-1.5-.35-2.26s-.31-1.49-.45-2.23c-.07-.38-.15-.75-.23-1.12a62.69,62.69,0,0,0-6.37-16.78q-1.5-2.69-3.25-5.22c-.36-.52-.72-1-1.1-1.55a12.36,12.36,0,0,0-1-1.29c-.37-.42-.71-.91-1.08-1.36a64.88,64.88,0,0,0-14-12.78,61.91,61.91,0,0,0-13.41-6.79,64.21,64.21,0,0,0-30.72-3.19c-1,.08-2,.31-3,.48h-.27a64.4,64.4,0,0,0-28,13.2,59.16,59.16,0,0,0-10,10.19l-.25.31a63.83,63.83,0,0,0-5.27,8c-.31.56-.61,1.12-.89,1.69s-.47.9-.68,1.37-.38.77-.55,1.17a60.69,60.69,0,0,0-2.31,5.76h0c-.18.52-.35,1.06-.52,1.58S175,95.5,174.87,96s-.23.82-.33,1.23a.32.32,0,0,1-.06.23,1.27,1.27,0,0,0-.11.41c-.1.36-.18.73-.27,1.1a.28.28,0,0,0,0,.13v.11c-.07.29-.13.58-.19.87s-.11.52-.16.79c-.12.55-.22,1.11-.31,1.67-.22,1.25-.4,2.5-.54,3.74-.06.42-.1.85-.13,1.29s-.1,1.13-.13,1.71a61.18,61.18,0,0,0,0,7.66c.05,1,.13,2.06.24,3.08,0,.23.05.45.07.67.1.73.21,1.42.31,2.1a.93.93,0,0,0,.07.43.08.08,0,0,0,0,.07v.35a.11.11,0,0,0,0,.08,1,1,0,0,0,.06.42,4.6,4.6,0,0,0,.15.89,62.29,62.29,0,0,0,2.26,8.74,61.3,61.3,0,0,0,4.93,11h.09c.33.6.68,1.19,1,1.79l.37.62h-.37l-3.11.15h.11c.73,0,1.44,0,2.15-.05h1.94l2.23-.09h0L184,145.47c-.13-.21-.26-.41-.38-.63a59.93,59.93,0,0,1-7.79-21.19c-.18-1.11-.35-2.15-.43-3.27q-.1-.9-.18-1.8a58.32,58.32,0,0,1,.69-15.66,60.45,60.45,0,0,1,11.7-26.67c.84-1.06,1.71-2.1,2.6-3.11a60.38,60.38,0,0,1,7.21-7,61.81,61.81,0,0,1,26.85-12.56h.24l1.3-.22,1.55-.26a61.45,61.45,0,0,1,29.47,3.1A60.7,60.7,0,0,1,295.37,100c.17,1,.43,2.07.6,3.19a60.67,60.67,0,0,1,.86,8.6,62.75,62.75,0,0,1-1.19,13.47,3.53,3.53,0,0,1-.1.55l-.43,2.24,2.15-.69.89-.3c1-.32,1.88-.66,2.81-1,2.58-.86,5-1.8,7.4-2.75l1.2-.43a113.3,113.3,0,0,0,21.86-11.53c8.6-2.41,19.44-3.27,33.21-2.67l-.11.08C353,117.41,336,125.56,314,133l-3.36,1.12h0l3.23,1.27.28.11a188.14,188.14,0,0,1,18.31,8.58l.51.26h.35c29.51-9.81,52.05-20.74,66.93-32.35,14-10.93,21.34-22.72,21.68-35A33.34,33.34,0,0,0,421.62,70.47ZM173.48,144.75h-.07v.14h.17m-.75,0-.3.06h0Zm-.11,2.56h2.73l-2.95-.1h-1.17m-27.46-6.63.24,2.41c.78-.09,1.47-.09,2.24-.17a51.17,51.17,0,0,1,6.07-.1,66.54,66.54,0,0,1-8-2.05l-.26-.09Zm.5.09-.26-.09h-.24l.24,2.41c.78-.09,1.47-.09,2.24-.17a51.17,51.17,0,0,1,6.07-.1,66.81,66.81,0,0,1-8-2.08Zm28.12,4.12h0l.28-.06Zm0,0h0l.28-.06Zm-28.12-4.12-.26-.09h-.24l.24,2.41c.78-.09,1.47-.09,2.24-.17a51.17,51.17,0,0,1,6.07-.1,66.81,66.81,0,0,1-8-2.08Z"/><path d="M172.74,144.66l-.45.07h-.1c-1.58,0-3.14-.12-4.65-.21-1.93-.11-3.79-.27-5.6-.46-3-.29-5.84-.69-8.49-1.19h0a67.24,67.24,0,0,1-9.18-2.27l-.26-.08h-.26c-1.65.18-3.32.42-5,.72-8.7,1.48-18.25,4.41-29.54,9.09-11.66-4.41-19-10.82-21.86-19-.15-.45-.3-.9-.43-1.37s-.2-.8-.29-1.19c-.11-.54-.21-1.06-.31-1.56-1.2-7,.69-14,5.59-20.65l.35-.43c6.71-8.77,18.75-17.21,36-25a268.87,268.87,0,0,1,28.55-10.9c10.62-3.46,22.26-6.7,34.6-9.67,5.49-1.31,10.52-2.47,15.08-3.39l.67-.14a61.22,61.22,0,0,0-11.34,7.26,59.44,59.44,0,0,0-10,10.3c0,.06-.1.13-.16.19-.82,1.07-1.6,2.16-2.34,3.28A62.07,62.07,0,0,0,176,92.9h0c-.18.52-.35,1.06-.52,1.58s-.32,1.06-.48,1.59c-.06.23-.12.47-.19.72s-.09.34-.14.51,0,.16-.06.23a1.27,1.27,0,0,0-.11.41c-.1.36-.18.73-.27,1.1a.28.28,0,0,0,0,.13v.11c-.07.29-.13.58-.19.87s-.11.52-.16.79a.88.88,0,0,0-.06.27c-.1.44-.18.88-.25,1.31-.23,1.27-.41,2.55-.54,3.83-.06.42-.1.85-.13,1.29s-.1,1.13-.13,1.71a61.18,61.18,0,0,0,0,7.66c.06,1,.14,2,.25,3.07l.06.6c.1.75.22,1.46.32,2.17v.23a6,6,0,0,0,.16,1c.12.77.26,1.53.42,2.29a.81.81,0,0,0,0,.22c.1.42.19.85.29,1.26.38,1.64.81,3.19,1.28,4.67.12.4.25.8.38,1.2s.32.94.5,1.42.34.94.53,1.42c.37.93.76,1.87,1.17,2.8.18.4.35.79.54,1.18s.37.76.57,1.15c.51,1.06,1.07,2.1,1.67,3.12h0c.33.6.68,1.19,1,1.79l.37.62h-.42l-3.11.15h.11c.73,0,1.44,0,2.15-.05h2.15l2.24-.09h0l-1.1-1.87-.39-.63a60.34,60.34,0,0,1-7.79-21.14c-.17-1.11-.34-2.15-.43-3.27-.07-.65-.14-1.3-.19-2a58.8,58.8,0,0,1,.71-15.5,60.27,60.27,0,0,1,11.65-26.57c.65-.82,1.31-1.62,2-2.41a60.59,60.59,0,0,1,34.66-20.22h0l-.41-2.41v-.05l-4.48.8c-6.63,1.23-16.73,3.22-28.73,6.09-25.21,6-46.54,13-63.58,20.73C110,86.7,97.6,95.22,90.63,104.25l-.34.43c-5.6,7.4-7.75,15.14-6.37,23.06.08.53.2,1,.32,1.55s.24,1,.37,1.46.21.72.33,1.08c2.79,8.54,9.83,15.24,20.94,20l.18.08c.91.39,1.85.76,2.81,1.12l.52.17.43-.17c1-.43,2-.85,3-1.25l.16-.06c11.83-4.75,21.62-7.45,30.75-8.48h.12c1.09.35,2.22.67,3.39,1-1.14-.31-2.24-.63-3.31-1l-.26-.06h-.08c-1.63-.53-3.18-1.1-4.63-1.72q2.49-.42,4.89-.69h0l.24,2.41c.78-.09,1.47-.09,2.24-.17a51.17,51.17,0,0,1,6.07-.1,100.71,100.71,0,0,0,10.67,1.51c1.5.14,3.05.26,4.63.35s3.1.16,4.7.21h.09l.28-.06h.58v.14h1.17c1.4,0,2.79.08,4.13.08h2.17l-.06-.09h-2.27c-1.31,0-2.69-.06-4.08-.07h-1m-.55,2.68h2.6l-2.95-.1h-1m1.17-2.67.17.06m7.84.18h-2.27c-1.31,0-2.69-.06-4.08-.07h-1v.17h1.17c1.4,0,2.79.08,4.13.08h2.12Z"/><path d="M295.33,128.13l.43-2.24a64.48,64.48,0,0,0,1.29-14,62.31,62.31,0,0,0-.86-8.61c-.18-1.12-.43-2.15-.61-3.18a60.7,60.7,0,0,0-25.76-37.36A60,60,0,0,0,257,56.29a61.23,61.23,0,0,0-29.51-3.1l-.43-2.5c5.85-.94,18.07-2.84,33.55-4.3,17.47-1.72,43.11-3.27,66.17-1.2H327c19.27,1.72,33.9,5.76,43.62,12h0l.43.26c7.66,5.08,12.22,11.53,13.51,19.36a26.54,26.54,0,0,1,.34,3.44c.35,9.89-5,19.53-15.92,28.48l-.43.34H368c-15.32-.94-27.28-.17-36.57,2.5a114.07,114.07,0,0,1-21.85,11.53l-1.21.43c-2.41.94-4.81,1.89-7.4,2.75-1.2.43-2.4.86-3.7,1.29ZM245,50.52a66,66,0,0,1,12.83,3.18,62.6,62.6,0,0,1,13.42,6.77,64.25,64.25,0,0,1,20.47,22.2,62,62,0,0,1,6.37,16.8c.26,1.11.43,2.23.69,3.35a66.37,66.37,0,0,1,.86,9,68.57,68.57,0,0,1-.86,12.48l1.55-.52c2.49-.86,5-1.81,7.31-2.75l1.2-.43a107.64,107.64,0,0,0,21.51-11.36l.26-.17.26-.09c9.46-2.75,21.25-3.53,37-2.58,10-8.35,14.88-17.12,14.54-26.07a22.74,22.74,0,0,0-.35-3.18c-1.2-7-5.25-12.82-12-17.47l-.35-.26c-9.33-6.15-23.7-10.1-42.71-12h-.17c-22.89-2.07-48.44-.52-65.91,1.2C255.06,49.32,249.73,49.92,245,50.52Z"/><path d="M173.58,144.82v.05l.25-.05Zm7.17.08h-2.27c-1.31,0-2.69-.06-4.08-.07l.13.08c1.4,0,2.79.08,4.13.08h2.16Zm-7.84-.18-.55.09h-.07c-1.58,0-3.12-.12-4.63-.22-1.73-.09-3.41-.22-5-.38-3.5-.33-6.76-.79-9.8-1.38h0a69.43,69.43,0,0,1-8.55-2.15l-.26-.09H144l-.18-.06c-9-3-15.06-7.53-18.12-13.55a15.68,15.68,0,0,1-.8-1.77q-.18-.45-.36-.93a19.27,19.27,0,0,1-.85-3.28c-.77-4.13.6-8.35,4-12.65a47.76,47.76,0,0,1,10.28-9.22,123.22,123.22,0,0,1,16.21-9.28,251.06,251.06,0,0,1,29-11.71l.19-.07h0c-1.06,1.58-2,3.2-3,4.86-.31.56-.61,1.12-.89,1.69s-.47.9-.68,1.37-.38.77-.55,1.17A60.69,60.69,0,0,0,176,92.92h0c-.18.52-.35,1.06-.52,1.58s-.32,1.06-.48,1.59-.23.82-.33,1.23a.32.32,0,0,1-.06.23,1.27,1.27,0,0,0-.11.41c-.1.36-.18.73-.27,1.1a.28.28,0,0,0,0,.13v.11c-.07.29-.13.58-.19.87s-.15.71-.22,1.06-.18.88-.25,1.31c-.23,1.27-.41,2.55-.54,3.83-.06.42-.1.85-.13,1.29s-.1,1.13-.13,1.71a61.18,61.18,0,0,0,0,7.66c.06,1,.14,2,.25,3.07l.06.6c.1.75.22,1.46.32,2.17v.23a6,6,0,0,0,.16,1c.12.77.26,1.53.42,2.29a.81.81,0,0,0,0,.22c.1.42.19.85.29,1.26.38,1.64.81,3.19,1.28,4.67.12.4.25.8.38,1.2s.32.94.5,1.42.34.94.53,1.42c.37.93.76,1.87,1.17,2.8.18.4.35.79.54,1.18s.37.76.57,1.15c.51,1.06,1.07,2.1,1.67,3.12h0c.33.6.68,1.19,1,1.79l.37.62h-.42l-3.11.15h.11c.73,0,1.44,0,2.15,0h2.15l2.24-.09h0l-1-1.78c-.15-.24-.3-.48-.43-.73a60.15,60.15,0,0,1-7.74-21c-.17-1.12-.34-2.15-.43-3.27a58.83,58.83,0,0,1,.52-17.47A60.34,60.34,0,0,1,188,76.29l1.9-2.49.59-.78-.24.08-3.72,1.21-.61.21h-.09l-.21.07c-6.06,2-11.76,4.06-17.06,6.15-5.56,2.19-10.68,4.43-15.32,6.71-13.08,6.28-22.37,12.73-27.45,19.18-3.87,4.91-5.42,9.9-4.56,14.72a23.16,23.16,0,0,0,.72,2.84,15.07,15.07,0,0,0,.66,1.89c.1.26.21.51.33.77q4.06,9.21,15.79,14.32h.12l.2.09q2.49-.42,4.89-.69h0l.24,2.41c.78-.09,1.47-.09,2.24-.17a51.17,51.17,0,0,1,6.07-.1,100.71,100.71,0,0,0,10.67,1.51c1.5.14,3.05.26,4.63.35s3.1.16,4.7.21h.09l.28-.06h.58m7.4.23-.06-.09h-2.27c-1.31,0-2.69-.06-4.08-.07l.13.08c1.4,0,2.79.08,4.13.08Zm-7.23-.12.25-.05h-.25Zm-.72,2.54h2.6l-2.95-.1h-1m9.18-2.43h-2.27c-1.31,0-2.69-.06-4.08-.07h-1v.08h1.17c1.4,0,2.79.08,4.13.08h2.14Z"/><path d="M295.33,128.13l.43-2.24a64.48,64.48,0,0,0,1.29-14,62.31,62.31,0,0,0-.86-8.61c-.18-1.12-.43-2.15-.61-3.18a60.7,60.7,0,0,0-25.76-37.36l-3.4-2.27,4.13-.09a294.42,294.42,0,0,1,35,1.55c14.46,1.72,25.3,4.64,32.35,9,5.51,3.27,8.69,7.4,9.47,12.21h0a25.38,25.38,0,0,1,.26,5c-.43,8.35-5.77,16.18-15.83,23.32l-.26.17a115.17,115.17,0,0,1-21.77,11.44l-1.2.43c-2.41,1-4.82,1.9-7.4,2.76-1.21.43-2.41.86-3.7,1.29ZM274.51,62.82a64,64,0,0,1,17.2,19.88,62.17,62.17,0,0,1,6.37,16.77c.26,1.11.43,2.23.69,3.35a66.37,66.37,0,0,1,.86,9,68.57,68.57,0,0,1-.86,12.48l1.55-.52c2.49-.86,5-1.81,7.31-2.75l1.2-.43a107.64,107.64,0,0,0,21.51-11.36l.26-.17c9.21-6.63,14.11-13.77,14.46-21.17a19.36,19.36,0,0,0-.24-4.43q-1-6-8.26-10.41c-6.71-4-17.21-6.88-31.32-8.6A279.31,279.31,0,0,0,274.51,62.82Z"/><path d="M180.75,144.9h-2.27c-1.31,0-2.69-.06-4.08-.07l.13.08c1.4,0,2.79.08,4.13.08h2.16Zm4.6,2.39-1-1.78c-.15-.24-.3-.48-.43-.73a60.15,60.15,0,0,1-7.74-21c-.17-1.12-.34-2.15-.43-3.27l-.26-2.06h0l-.24.16-1.46.94-.92.61h-.05a42.33,42.33,0,0,0-6.16,5c-3.2,3.2-4.76,6.4-4.66,9.46V135a7.8,7.8,0,0,0,.35,2.15c.06.23.14.46.21.69h0a12.48,12.48,0,0,0,2.49,4.23,16.49,16.49,0,0,0,2.53,2.34l.12.08a.28.28,0,0,0,.1.09c1.53.09,3.1.16,4.7.21h.07l-.17-.09-.17-.08-.16-.08-.34-.26h-.09c-.26-.14-.51-.29-.76-.44a15.06,15.06,0,0,1-4.66-4,9.06,9.06,0,0,1-1.55-3.2,7,7,0,0,0-.11-.72c0-.25-.1-.66-.15-1-.25-2.41,1.12-5.08,3.87-7.91a38.63,38.63,0,0,1,4.93-4.18h0a1,1,0,0,0,0,.25.74.74,0,0,0,0,.21.08.08,0,0,0,0,.07v.35a.11.11,0,0,0,0,.08,1.61,1.61,0,0,0,.06.33c.12.77.26,1.53.42,2.29a.81.81,0,0,0,0,.22c.1.42.19.85.29,1.26.38,1.64.81,3.19,1.28,4.67.12.4.25.8.38,1.2s.32.94.5,1.42.34.94.53,1.42c.37.93.76,1.87,1.17,2.8.18.4.35.79.54,1.18s.37.76.57,1.15c.51,1.06,1.07,2.1,1.67,3.12h0c.33.6.68,1.19,1,1.79l.37.62h-.17l-3.11.15h.11c.73,0,1.44,0,2.15-.05h2.15l2.24-.09Zm-4.54-2.3-.06-.09h-2.27c-1.31,0-2.69-.06-4.08-.07l.13.08c1.4,0,2.79.08,4.13.08Zm-.06-.09h-2.27c-1.31,0-2.69-.06-4.08-.07h-.58l-.25,0h1c1.4,0,2.79.08,4.13.08h2.12Z"/><path d="M295.33,128.13l.43-2.24a64.48,64.48,0,0,0,1.29-14,62.31,62.31,0,0,0-.86-8.61c-.18-1.12-.43-2.15-.61-3.18L295.15,98l2.07.52a45.64,45.64,0,0,1,8.09,2.75c4.64,2.15,7.4,4.91,8.17,8.09.09.43.17.86.26,1.38.6,4.21-.95,8.34-4.73,12.3l-.18.17-.25.09c-2.41.94-4.82,1.89-7.4,2.75-1.21.43-2.41.86-3.7,1.29Zm3.18-26.59.26,1.29a66.37,66.37,0,0,1,.86,9,68.57,68.57,0,0,1-.86,12.48l1.55-.52c2.41-.86,4.73-1.72,7.05-2.67,3-3.35,4.3-6.71,3.87-10h0c-.08-.34-.08-.69-.17-1.12-.6-2.41-2.92-4.56-6.8-6.36A40.91,40.91,0,0,0,298.51,101.54Z"/><path d="M348.93,152.22c-3.87-1.64-8.52-4.05-13.42-6.54l-2.84-1.46,1.2-2.24,2.84,1.46c4.9,2.5,9.46,4.91,13.25,6.45Z"/><path d="M310,122.71l-1.64-2a63.89,63.89,0,0,1,21.51-11.53,7.92,7.92,0,0,0,.78-.26l.6,2.5c-.17.08-.43.08-.6.17A61.91,61.91,0,0,0,310,122.71Z"/><path d="M425.41,114.88c-7.57-.43-16.17-1.47-25.72-2.76l-.78-.08c-10.06-1.21-20.47-2.5-30.71-3.19l.17-2.58c10.33.61,20.74,1.9,30.89,3.19l.77.08c9.55,1.21,18.07,2.24,25.64,2.67Z"/><path d="M301.69,125.72l-2.06-1.55c4.39-5.68,8.17-10.15,11.79-14.11,11-12,21.85-19.36,34.15-23.32l.26-.08a205.94,205.94,0,0,1,37.6-7.75c12.47-1.55,25.21-2.44,37.39-3.35l1.3-.09c12.47-.86,24.17-1.72,35.36-3.18l.34,2.58c-11.27,1.46-23.06,2.32-35.53,3.18l-1.29.09c-12.22.86-24.87,1.81-37.34,3.35C369,83.3,356.81,85.8,346.49,89.15l-.26.09c-11.79,3.78-22.28,11-33,22.63C309.82,115.65,306.08,120.13,301.69,125.72Z"/><path d="M299.37,112.55l-2.15-1.37c2.32-3.62,4.39-6.71,6.37-9.47C313.91,87.35,324.15,77.62,336,71.08l.17-.08a1.59,1.59,0,0,0,.43-.26c9-5,20-9.38,33.21-13.59h.09c11.27-3.53,22.54-6.37,36-9.73l.77-.17c11.1-2.75,21.6-5.33,31.58-8.34l.77,2.41c-10,3-20.56,5.67-31.66,8.43l-.77.17c-13.51,3.35-24.78,6.19-36,9.72h-.09c-13.07,4.13-23.83,8.52-32.78,13.42-.17.09-.26.18-.34.18l-.17.08c-11.41,6.37-21.51,15.83-31.58,29.94C303.76,105.93,301.69,109,299.37,112.55Z"/><path d="M291.71,83.9l-2.23-1.29a100.27,100.27,0,0,1,13.68-19c.43-.43.86-1,1.29-1.38a118.48,118.48,0,0,1,21.68-17l.26-.18c7.82-5,16.26-9.46,24.86-14l1.29-.69c7-3.7,13.59-7.14,19.7-10.67l1.29,2.24c-6.19,3.61-12.82,7.06-19.78,10.76l-1.3.68c-8.68,4.56-17.12,9-24.95,14l-.25.17a111.67,111.67,0,0,0-21.08,16.52l-1.29,1.29A114.61,114.61,0,0,0,291.71,83.9Z"/><path d="M258.59,55.47l-2.41-1c.95-2.32,2.06-4.65,3.44-7.57,2.32-4.73,4.9-9.47,7.31-13.85l.86-1.47c2.16-3.95,4.48-8,6.46-12l2.32,1.12c-2,4-4.3,8.09-6.45,12l-.86,1.46c-2.41,4.39-5,9-7.32,13.77C260.57,50.87,259.45,53.19,258.59,55.47Z"/><path d="M195.82,66.09c-1.72-2-3.61-3.87-5.68-5.93-3.52-3.53-7.22-6.8-11.35-10.5l-1.12-.95c-3.62-3.27-7.06-6.28-10.33-9.46l1.77-1.78c3.18,3.1,6.62,6.2,10.24,9.38l1.12.95c4.13,3.7,7.83,7.05,11.44,10.58,2.06,2.07,4,4,5.76,6Z"/><path d="M331.46,111.35a113.3,113.3,0,0,1-21.86,11.53l-1.2.43c-2.41,1-4.82,1.89-7.4,2.75-.93.33-1.85.67-2.81,1l-.89.3-2.15.69.43-2.24a5.3,5.3,0,0,1,.1-.55c-2.65.87-5.52,1.75-8.62,2.71-5.5,1.63-11.44,3.18-18,4.73s-13.34,3-20.39,4.3q-4.77.9-8.52,1.55c-2.41.34-5.33.86-8.6,1.37-7.4,1.21-14,2.16-20.31,2.84-6.71.78-13.07,1.38-19.1,1.72-2.74.16-5.56.25-8.26.31h-.29c.12.22.25.42.38.63l1.19,1.87h.17c1.61,0,3.2-.11,4.77-.19l2.4-.13c6-.34,12.47-.95,19.17-1.72,6.28-.69,12.91-1.64,20.39-2.84,1.39-.18,2.71-.38,4-.59l2.17-.36.78-.13,1.69-.3c2.49-.43,5.42-.94,8.6-1.55,7.14-1.29,14-2.75,20.56-4.3,2.92-.68,5.71-1.37,8.38-2.09h.15c3.36-.89,6.54-1.79,9.63-2.7,3.35-.94,6.45-2,9.38-2.92.25-.09.51-.17.76-.27,1-.33,2-.68,2.94-1,2.58-.86,5-1.81,7.4-2.75l1.2-.43a113.78,113.78,0,0,0,21.84-11.55c8.56-2.4,19.34-3.26,33-2.68l.11-.08C350.9,108.08,340.06,108.94,331.46,111.35ZM172.91,144.72l-.55.09h-.07c-1.58,0-3.12-.12-4.63-.22-1.73-.09-3.41-.22-5-.38-3.5-.33-6.76-.79-9.8-1.38h0a69.43,69.43,0,0,1-8.55-2.15l-.26-.09h-.26c-1.6.18-3.24.41-4.91.69h0c-8.84,1.48-18.58,4.44-30.09,9.29L106,151.78l-.19.08.19.08,2.82,1c14.19,5.34,34.33,7.92,59.88,7.57h.48c7.43-.1,15.44-.44,23.7-1l1.46-.08c.51-.09,1.12-.09,1.72-.18l.69-.08c3.44-.26,6.79-.52,10.06-.86,2-.18,3.88-.43,5.68-.61l3.7-.43c1.64-.17,3.27-.43,4.82-.6l.43-.08c5.16-.61,10.15-1.29,15-2.07,2.58-.34,4.73-.69,6.54-1s4-.69,6.19-1.21c5.08-.94,10.07-2,15.06-3.09,1.72-.35,3.44-.69,5.25-1.12l3.53-.86c1.63-.43,3.27-.78,5-1.21,3.09-.68,6.28-1.55,9.55-2.41l2-.51c.77-.17,1.46-.43,2.23-.6l.26-.09c7.8-2.2,15.34-4.49,22.39-6.86l.32-.11h.09c24-8.18,42.19-17.22,54-26.85l2.32-1.92.17-.15-3.27-.17c-16-1-28-.17-37.51,2.58l-.26.09-.26.17a107.56,107.56,0,0,1-21.5,11.36l-1.21.43c-2.32.94-4.82,1.89-7.31,2.75l-1.16.41h0l-2.42.86-.67.22c-2.65.87-5.52,1.75-8.62,2.71-5.5,1.63-11.44,3.18-18,4.73s-13.34,3-20.39,4.3q-4.77.9-8.52,1.55c-2.41.34-5.33.86-8.6,1.37-7.4,1.21-14,2.16-20.31,2.84-6.71.78-13.07,1.38-19.1,1.72-2.74.16-5.56.25-8.26.31h-1c-.7,0-1.38.06-2.07.08h-2.32c-1.31,0-2.69-.06-4.08-.07h-1v.08h1.17c1.4,0,2.79.08,4.13.08h2.08l-.06-.09h.06c.33.6.68,1.19,1,1.79l.37.62h3.12c1.61,0,3.2-.11,4.77-.19l2.4-.13c6-.34,12.47-1,19.17-1.72,6.28-.69,12.91-1.64,20.39-2.84,1.39-.18,2.71-.38,4-.59l2.17-.36.78-.13,1.69-.3c2.49-.43,5.42-.94,8.6-1.55,7.14-1.29,14-2.75,20.56-4.3,2.92-.68,5.71-1.37,8.38-2.09h.15c3.36-.89,6.54-1.79,9.63-2.7,3.35-.94,6.45-2,9.38-2.92.25-.09.51-.17.76-.27,1-.33,2-.68,2.94-1,2.58-.86,5-1.81,7.4-2.75l1.2-.43a113.77,113.77,0,0,0,21.86-11.51c8.56-2.4,19.34-3.26,33-2.68h.19c-11.53,8.69-28.47,16.78-50.5,24.26h-.09l-3.4,1.14c-6.13,2-12.56,3.93-19.22,5.74l-.26.09c-.78.17-1.46.43-2.24.6l-2.41.61c-3.1.86-6.19,1.63-9.12,2.32-1.72.43-3.35.77-5,1.2l-3.53.86c-1.8.35-3.52.78-5.24,1.12-5,1-10,2.07-15,3-2.41.43-4.56.78-6.46,1.12s-3.95.69-6.45,1c-4.73.69-9.81,1.47-14.88,2.07l-.43.08c-1.55.26-3.19.43-4.82.61L212,155c-1.81.26-3.7.43-5.59.6-3.27.26-6.63.6-10,.86l-.6.09c-.6.08-1.12.08-1.72.17l-1.46.08c-7.47.54-14.67.86-21.48,1l-2.61,0h-.6c-22.93.22-41.41-1.83-55-6.22h-.19c11.88-4.79,21.64-7.46,30.88-8.5h-.08c-1.63-.53-3.18-1.1-4.63-1.72q2.49-.42,4.89-.69h0l.24,2.41c.78-.09,1.47-.09,2.24-.17a51.17,51.17,0,0,1,6.07-.1A100.71,100.71,0,0,0,163,144.41c1.5.14,3.05.26,4.63.35s3.1.16,4.7.21h.09l.28-.06h.58"/><path d="M173.93,103.69a101.28,101.28,0,0,0-18.76-12.9l-2.06-1a121,121,0,0,0-25.73-8.6c-8.77-2.06-18-3.44-27.36-4.9L98.47,76c-7.83-1.21-15.23-2.33-22.37-3.7l.52-2.5c7.14,1.38,14.54,2.5,22.28,3.7l1.55.26c9.47,1.46,18.67,2.84,27.53,4.91a123.47,123.47,0,0,1,26.25,8.77c.68.35,1.37.69,2.06,1a99.33,99.33,0,0,1,19.27,13.25Z"/><path d="M176.34,134.32c-3.44-2.67-6.63-5.07-9.73-7.23-14-9.8-26.5-15.65-39.31-18.24l-.87-.17c-9.8-1.89-21.25-2.58-35.1-2.06h-.08c-12.43.43-25.43,1.72-36.91,2.85h-.26c-11.88,1.2-23.06,2.32-33.47,2.75l-.09-2.58c10.33-.43,21.51-1.55,33.3-2.75h.26c11.44-1.12,24.43-2.41,37-2.84h.09c14-.52,25.72.17,35.71,2.15l.86.17C140.9,109,153.74,115,168,125c3.1,2.24,6.37,4.56,9.81,7.31Z"/><path d="M179.43,145h-.77c-1.34,0-2.73-.06-4.13-.08l-.13-.08h0c-3-1.87-5.65-3.47-8.21-4.9-1.14-.63-2.25-1.25-3.36-1.82l-.3-.16h0c-13.28-7-25-10.53-36.92-11H122.9c-10.16,0-21.78,1.47-35.61,4.38L86,131.6l-1,.22c-11.61,2.53-23.34,5.77-33.85,8.68l-1.41.39-1.27.34h0c-12.21,3.44-23.74,6.62-34.5,8.86l-.51-2.5c10.61-2.23,22.08-5.38,34.15-8.81h.18l1.29-.34c.39-.12.79-.22,1.18-.33,10.55-2.93,22.4-6.18,34.07-8.79l1.14-.26,1.17-.25c13.68-2.94,25.26-4.41,35.34-4.48h2.54c12.24.27,24.2,3.57,37.51,10.39.66.33,1.32.69,2,1l.58.31c4.36,2.33,9.15,5.22,14.77,8.89h0Z"/><path d="M173.16,144.8h-.33l-.28.06h-.09c-1.6-.05-3.17-.12-4.7-.21s-3.13-.21-4.63-.35a4.7,4.7,0,0,0-.51-.12l-.68-.16a56.69,56.69,0,0,0-8.49-1.19h-1a51.17,51.17,0,0,0-6.07.1c-.77.08-1.46.08-2.24.17l-.24-2.41v-.17a22.21,22.21,0,0,1,2.32-.18,57.8,57.8,0,0,1,18.79,1.84q2.88.73,5.83,1.77c.25.09.51.17.76.27h.18l.26.17.71.27.17.06a.4.4,0,0,0,.22.06Z"/><path d="M245,166c-1.2.18-2.49.43-3.87.61-2.58.43-5.5.86-8.69,1.37l-.77.09-4,.51c-1.38.18-2.84.43-4.39.61H223c-2.32.34-4.81.6-7.31.94h-.26l-3.18.35a572.74,572.74,0,0,1-58.08,3.95l-3,.09,2.07-2.24c4.57-4.79,9.57-9.89,14.57-14.19l.34-.35h.43c8.52-.08,17.73-.51,27.28-1.29l.69-.08c3.44-.26,6.79-.61,10-.86,2-.18,3.95-.43,5.85-.61l3.41-.41c1.63-.17,3.18-.34,4.64-.6l.52-.08c5.16-.61,10.15-1.38,14.88-2.07,2.5-.34,4.65-.69,6.46-1l6.45-1.12,15-3c1.72-.35,3.44-.78,5.25-1.12l3.87-.95c1.55-.34,3.1-.68,4.65-1.11q4.38-1,9-2.33h0l2.41-.6c8.78-2.41,17.21-4.9,25-7.57l.51-.09.35.09q9.63,4,18.84,8.86l2.75,1.38-2.92.94a582.64,582.64,0,0,1-56.57,15.37l-5.16,1.12c-1.89.43-3.7.78-5.42,1.12l-1.63.35-2.76.51c-.94.17-2,.43-2.92.6l-1.64.35c-3.18.6-6.11,1.12-8.69,1.63A19,19,0,0,1,245,166Zm-29.76,1.72h.34c2.41-.25,4.82-.6,7.14-.94H223c1.46-.17,2.92-.43,4.3-.6l4-.52.69-.09c3.18-.51,6-.94,8.6-1.29a35.79,35.79,0,0,1,3.87-.6c1.21-.17,2.5-.43,3.79-.69,2.58-.43,5.5-1,8.69-1.63l1.63-.35c.95-.17,1.89-.34,2.93-.6.86-.17,1.8-.34,2.66-.52l1.64-.34c1.72-.34,3.53-.77,5.42-1.12l5.08-1.12c19.18-4.3,37.16-9.12,53.42-14.36-5-2.59-10.23-5.08-15.4-7.15-7.74,2.59-16.08,5.17-24.77,7.49l-2,.52c-3.27.86-6.46,1.72-9.55,2.4-1.55.35-3.1.78-4.65,1.12l-4,.95c-1.8.43-3.52.77-5.25,1.12-5,1.12-10.06,2.15-15,3.1-2.41.43-4.56.86-6.45,1.11s-4,.69-6.54,1q-7.23,1.17-15,2.06l-.52.09c-1.55.17-3.1.34-4.73.6l-3.44.43c-1.9.17-3.88.43-5.94.6-3.27.35-6.63.6-10.07.86l-.69.09c-9.46.69-18.49,1.12-26.92,1.29-4,3.53-8.09,7.57-11.88,11.53,17-.35,35.36-1.72,54.72-4l3.62-.52Z"/><rect x="304.78" y="120.68" width="2.58" height="18.84" transform="translate(54.54 347.68) rotate(-63.89)"/><path d="M181.92,147.33l-.1.14h0c-.84.82-6.61,6.44-10.62,10.42a.77.77,0,0,1-.12.13c-.5.49-1,1-1.38,1.39l-1.88-1.34.18-.17.17-.18s8.46-9.06,10.5-10.23h0l3.11-.15Z"/><path d="M183,147.31h-1.15l-3.11.15h-3.19l-3-.1h-4.48a120.88,120.88,0,0,1-16.65-2c-1-.21-2-.43-2.93-.65l-1.19-.29c-1.14-.31-2.24-.63-3.31-1l-.26-.06h-.08c-1.63-.53-3.18-1.1-4.63-1.72q2.49-.42,4.89-.69h0l.24,2.41c.78-.09,1.47-.09,2.24-.17a51.17,51.17,0,0,1,6.07-.1,100.71,100.71,0,0,0,10.67,1.51c1.5.14,3,.26,4.63.35s3.1.16,4.7.21h.09l.28-.06h.58v.14h1.17c1.4,0,2.79.08,4.13.08h2.09l-.06-.09h.06c.33.6.68,1.19,1,1.79l.37.62Z"/><path d="M299.06,122.35c-.08.61-.18,1.22-.29,1.82-.14.78-.29,1.57-.46,2.34l-.12.54v.12h0l-.68.24c-3.37,1.12-6.66,2.11-9.43,2.94q-4.5,1.34-9.65,2.66h-.15c-2.63.68-5.4,1.36-8.33,2.06-7.39,1.78-14.24,3.12-20.54,4.31-2.66.51-5.4,1-8.62,1.56l-1.74.31-.78.13-2.17.36c-1.24.19-2.58.39-4,.58-7.28,1.18-14,2.11-20.41,2.84-6.63.75-13.1,1.33-19.25,1.73l-2.3.13c-1.57.08-3.16.15-4.77.19h-3.12l-.37-.62a17.85,17.85,0,0,1-1-1.79h0c-.6-1-1.16-2.09-1.67-3.12-.2-.39-.39-.77-.57-1.15s-.36-.78-.54-1.18c-.43-.94-.82-1.88-1.17-2.8-.19-.48-.36-1-.53-1.42s-.36-1-.52-1.54l-.36-1.08c-.47-1.48-.9-3-1.28-4.67-.1-.41-.19-.84-.29-1.26a.81.81,0,0,1,0-.22c-.1-.43-.19-.86-.27-1.31s-.14-.72-.21-1.09l-.18-1.14-.47-2.15,0-.49a61.78,61.78,0,0,1,.58-17.75,62.76,62.76,0,0,1,9.74-24.3c.78-1.18,1.61-2.32,2.47-3.45h0a68.17,68.17,0,0,1,10.16-10.5,64.33,64.33,0,0,1,23.87-12.24c1.34-.36,2.69-.68,4.06-.94l3.17-.53a63.32,63.32,0,0,1,58.5,23c.37.45.73.9,1.08,1.36s.65.86,1,1.29.74,1,1.1,1.55q1.61,2.35,3,4.85a64.82,64.82,0,0,1,6.32,16.69,15.6,15.6,0,0,1,.45,1.56c.18.7.33,1.4.44,2.11V103c.13.76.24,1.51.35,2.26.08.56.14,1.12.2,1.69s.1,1.12.14,1.68.08,1.1.1,1.67.06,1,.07,1.52V112A60.22,60.22,0,0,1,299.06,122.35Z"/><path d="M493.87,93.93,499,85.59c4.64,4,11.55,6.07,17.7,6.07,12.64,0,18.88-8.09,18.88-20.14V71c-2.36,4.8-8.68,10.11-19.47,10.11-16.3,0-27.14-12.65-27.14-28.57S499.82,23.9,516.12,23.9c8.93,0,16.94,4.21,20.06,10V25.08h12.64V70.67c0,20.65-13.82,31-30.85,31C507.82,101.77,499.35,98.82,493.87,93.93Zm41.72-41.8a16.32,16.32,0,0,0-16-16.6H519c-9.35,0-16.51,7.25-16.51,17.11S509.63,69.58,519,69.58C528.51,69.58,535.59,62.41,535.59,52.13Z"/><path d="M559.44,25.08h13.23V36.79c2.28-6,8.68-12.89,21.41-12.89V38.31c-13,0-21.41,6.24-21.41,21.74V84.16H559.44Z"/><path d="M600.4,54.74c0-17.1,11.12-30.84,27.3-30.84a25.43,25.43,0,0,1,19.72,8.68v-7.5h13.24V84.16H647.42V76.74c-4.63,5.48-11.71,8.6-19.72,8.6C611.52,85.47,600.4,71.68,600.4,54.74Zm47,0c0-10.36-6.91-18-16.35-18-10,0-17.19,7.67-17.19,18s7.17,18,17.19,18c9.3-.13,16.37-7.46,16.37-18Z"/><path d="M668.33,25.08h13.23l12,29.83c3.12,7.67,5.48,15.85,5.48,15.85s2.53-8.35,5.47-15.76l12-30h13.23L705.49,84.33H692.68Z"/><path d="M736,8.56a8.05,8.05,0,1,1,16.1,0v0a8.05,8.05,0,0,1-16.1,0Zm1.43,16.52h13.32V84.16H737.52V25.08Z"/><path d="M767.82,65.28V36h-8.68V25.16h8.68V13.53l13.23-2.78V25.08h17.77V36h-17.7V65.53c0,6.32,3,8.35,6.32,8.35A16.45,16.45,0,0,0,796,71L800,81a25.66,25.66,0,0,1-14.25,4.38C773.67,85.47,767.82,78.85,767.82,65.28Z"/><path d="M815,89.38c7.08,0,10-2.53,13-8.51l1.16-2.4L803.59,25.16h13.65l14.25,31.52c1.77,4,3.79,9.36,3.79,9.36s2.61-6.91,3.79-10l12.81-30.93h13.4l-27,61.78c-6.06,13.74-16.35,14.92-23.26,14.92V89.38Z"/><path d="M491.26,168.3v17.79H489V107.54h2.28v39.78c3.45-11,14-19,25.45-19,15.84,0,27.56,12.64,27.56,29.49s-11.72,29.5-27.56,29.5A27.47,27.47,0,0,1,491.26,168.3Zm50.65-10.53c0-15.68-10.87-27.22-25.2-27.22-14,0-25.45,12.22-25.45,27.22S502.72,185,516.71,185C531,185,541.91,173.47,541.91,157.77Z"/><path d="M516.71,188.31a28.54,28.54,0,0,1-24.45-15.09v13.87H488V106.54h4.28v35.84c4.79-8.95,14.39-15.06,24.45-15.06,16.28,0,28.56,13.11,28.56,30.49S533,188.31,516.71,188.31ZM494,172.21a26.53,26.53,0,0,0,22.75,14.1c15.12,0,26.53-12.25,26.53-28.5s-11.41-28.49-26.56-28.49c-9,0-17.63,5.3-22.21,13.15a26.09,26.09,0,0,1,22.21-12.92c14.94,0,26.2,12.14,26.2,28.22S531.65,186,516.71,186A26.18,26.18,0,0,1,494,172.21Zm-4,12.88h.28V162l.63,1.95a30.12,30.12,0,0,1-.11-11.7l-.52,1.64V108.54H490Zm26.73-53.54c-13.48,0-24.45,11.77-24.45,26.22s11,26.22,24.45,26.22c13.8,0,24.2-11.27,24.2-26.22S530.51,131.55,516.71,131.55Z"/><path d="M559.69,129.47H562V143c5.14-10.62,14.41-14.67,24.1-14.67v2.28c-14.58,0-24.1,10.28-24.1,22.25v33.29h-2.28Z"/><path d="M563,187.11h-4.28V128.47H563v10.69c5-7.68,13.11-11.87,23.1-11.87h1v4.28h-1c-13.17,0-23.1,9.14-23.1,21.25Zm-2.28-2H561V152.82c0-12.94,10.29-22.78,24.1-23.23v-.28c-7.34.22-16.8,2.94-22.2,14.09l-1.9,3.93V130.47h-.28Z"/><path d="M596.82,113.61a2.62,2.62,0,1,1,2.63,2.61h0A2.62,2.62,0,0,1,596.82,113.61Zm1.39,15.86h2.27v56.64h-2.27Z"/><path d="M601.48,187.11h-4.27V128.47h4.27Zm-2.27-2h.27V130.47h-.27Zm.25-67.89a3.65,3.65,0,0,1-3.64-3.6h0a3.63,3.63,0,0,1,1-2.57,3.67,3.67,0,0,1,2.56-1.07h0a3.62,3.62,0,0,1,3.61,3.61,3.62,3.62,0,0,1-3.6,3.63Zm-1.64-3.61a1.63,1.63,0,0,0,1.63,1.61,1.61,1.61,0,0,0,1.14-.47,1.57,1.57,0,0,0,.47-1.15,1.62,1.62,0,0,0-1.62-1.62h0a1.69,1.69,0,0,0-1.15.48A1.65,1.65,0,0,0,597.82,113.61Z"/><path d="M615.9,157.77c0-16.86,11.72-29.5,27.56-29.5,11.46,0,22,8,25.45,19v-39.8h2.28V186h-2.28V168.22c-3.45,11-14,19-25.45,19C627.62,187.27,615.9,174.63,615.9,157.77Zm53,0c0-15.09-11.46-27.22-25.45-27.22-14.32,0-25.2,11.54-25.2,27.22S629.13,185,643.45,185c14,0,25.46-12.13,25.46-27.22Z"/><path d="M643.37,188.22a27.57,27.57,0,0,1-19.66-8c-5.68-5.66-8.81-13.64-8.81-22.47,0-17.38,12.28-30.5,28.56-30.5,10.06,0,19.67,6.11,24.45,15.06V106.47h4.28V187h-4.28V173.17c-4.78,9-14.39,15.05-24.45,15.05Zm.09-58.95c-15.14,0-26.56,12.26-26.56,28.5,0,8.3,2.92,15.77,8.22,21.06a25.63,25.63,0,0,0,18.25,7.39h.09c9,0,17.69-5.32,22.26-13.21a26.1,26.1,0,0,1-22.27,13c-14.93,0-26.2-12.13-26.2-28.22s11.27-28.22,26.2-28.22c9.82,0,18.4,5.74,23,14.23C662.07,135.18,653,129.27,643.46,129.27ZM669.91,185h.28V108.47h-.28V153.8l-.56-1.81a31.36,31.36,0,0,1,.54,4.78h0v1a30.16,30.16,0,0,1-.51,5.58l.51-1.66Zm-26.46-53.46c-13.79,0-24.2,11.28-24.2,26.22S629.66,184,643.45,184c13.33,0,24.2-11.48,24.46-25.7v-.52C667.9,143.32,656.94,131.55,643.45,131.55Z"/><path d="M693.82,193.93l1.68-1.69a24.82,24.82,0,0,0,19.13,9.1c5.4,0,25-2.78,25-28.15v-7.67c-2.61,9.7-13.49,18.12-25.45,18.12a27.73,27.73,0,0,1,0-55.45c12,0,22.84,8.51,25.45,18.12V129.37h2.19v44.16c0,27.81-21.74,30.09-27.3,30.09A27,27,0,0,1,693.82,193.93Zm45.76-39c0-12.3-11.72-24.35-25.45-24.35a25.45,25.45,0,0,0,0,50.9c14.28,0,25.41-11.15,25.41-26.58Z"/><path d="M714.52,204.62a28,28,0,0,1-21.46-10l-.59-.7,3.11-3.13.7.86a23.71,23.71,0,0,0,18.36,8.73c2.45,0,24-.76,24-27.15v-2.6c-4.54,8.18-14.37,14-24.45,14a28.73,28.73,0,0,1,0-57.45c10.09,0,19.92,5.89,24.47,14.08v-12.9h4.19v45.16c0,12.2-4,21.05-12,26.31A31,31,0,0,1,714.52,204.62ZM695.19,194a26,26,0,0,0,19.34,8.64c4.38,0,26.29-1.4,26.29-29.09V130.37h-.19v23.44l-.1-.38c0,.5.05,1,.05,1.5v2l-.09-.07c-.06.92-.16,1.83-.29,2.73l.43-1.62v15.23c0,11.18-3.67,19.4-10.9,24.41a28.06,28.06,0,0,1-15.1,4.74,25.72,25.72,0,0,1-19.18-8.62ZM706,181.21a26.67,26.67,0,0,0,8.18,1.43c10.72,0,21.13-7.13,24.18-16.42a25.75,25.75,0,0,1-24.25,16.26A26.22,26.22,0,0,1,706,181.21Zm8.11-49.63a24.45,24.45,0,0,0,0,48.9c13.92,0,24.41-11,24.41-25.58v-1.21C737.79,142,726.49,131.58,714.13,131.58Zm0-2c10.06,0,19.46,6.38,23.85,14.95-3.49-8.75-13.5-15.34-23.8-15.34a26.63,26.63,0,0,0-18.57,8A26.38,26.38,0,0,1,714.13,129.58Z"/><path d="M757.15,157.77c0-16.6,11.8-29.5,27.22-29.5,15.17,0,26.89,12.9,26.89,29.5v1.1H759.51C760,173.78,771.06,185,785.22,185a27.24,27.24,0,0,0,19.47-7.92l1.68,1.69a30.34,30.34,0,0,1-21.15,8.51C769.46,187.27,757.15,174.37,757.15,157.77Zm51.75-1.1c-.51-14.58-11-26.12-24.44-26.12-13.82,0-24.36,11.21-24.86,26.12Z"/><path d="M785.28,188.27h-.06c-16.3,0-29.07-13.39-29.07-30.5s12.4-30.5,28.22-30.5c15.64,0,27.89,13.4,27.89,30.5v2.1H760.57C761.52,173.7,772,184,785.22,184h.25A26.44,26.44,0,0,0,804,176.36l.71-.7,3.1,3.12-.73.7A31.24,31.24,0,0,1,785.28,188.27Zm-.91-59c-14.7,0-26.22,12.52-26.22,28.5s11.89,28.5,27.07,28.5h.06a29.24,29.24,0,0,0,19.66-7.53l-.26-.26A28.39,28.39,0,0,1,785.21,186c-14.69,0-26.17-11.64-26.7-27.08l0-1h51.78v-.1C810.26,141.79,798.89,129.27,784.37,129.27Zm25.57,28.4H758.57l0-1c.52-15.44,11.64-27.09,25.86-27.09,13.74,0,24.91,11.9,25.44,27.09Zm-49.28-2h47.19c-1-13.6-11.05-24.12-23.39-24.12C771.66,131.55,761.58,141.85,760.66,155.67Z"/></svg>